<?xml version="1.0" encoding="UTF-8"?>
<svg width="410px" height="410px" viewBox="0 0 410 410" version="1.1" xmlns="http://www.w3.org/2000/svg" xmlns:xlink="http://www.w3.org/1999/xlink">
    <!-- Generator: Sketch 48.2 (47327) - http://www.bohemiancoding.com/sketch -->
    <title>philosopher/ill_4</title>
    <desc>Created with Sketch.</desc>
    <defs>
        <circle id="path-1" cx="201" cy="201" r="201"></circle>
        <circle id="path-3" cx="13.5" cy="13.5" r="13.5"></circle>
        <circle id="path-5" cx="201" cy="201" r="201"></circle>
    </defs>
    <g id="philosopher/ill_4" stroke="none" stroke-width="1" fill="none" fill-rule="evenodd" transform="translate(-67.000000, -12.000000)">
        <g transform="translate(71.000000, 16.000000)">
            <g id="Group-8">
                <mask id="mask-2" fill="white">
                    <use xlink:href="#path-1"></use>
                </mask>
                <use id="Oval-8-Copy" fill="#5D27E5" xlink:href="#path-1"></use>
                <circle id="Oval-3-Copy-2" fill="#0A2440" opacity="0.600000024" mask="url(#mask-2)" cx="201.405006" cy="-71.594994" r="252.405006"></circle>
                <circle id="Oval-3-Copy-3" fill="#071E37" mask="url(#mask-2)" cx="201.547497" cy="-72.452503" r="191.726252"></circle>
                <path d="M393.606423,196.278142 L572,371.532707 L204,371.532707 L382.393577,196.278142 C385.505888,193.220595 390.494112,193.220595 393.606423,196.278142 Z" id="Triangle-Copy-7" fill="#02AD8A" mask="url(#mask-2)"></path>
                <path d="M289.606423,222.278142 L468,397.532707 L100,397.532707 L278.393577,222.278142 C281.505888,219.220595 286.494112,219.220595 289.606423,222.278142 Z" id="Triangle-Copy-8" fill="#00B993" mask="url(#mask-2)"></path>
                <path d="M19.6064227,217.278142 L198,392.532707 L-170,392.532707 L8.39357733,217.278142 C11.5058879,214.220595 16.4941121,214.220595 19.6064227,217.278142 Z" id="Triangle-Copy-9" fill="#02AD8A" mask="url(#mask-2)"></path>
                <path d="M98.6064227,186.278142 L277,361.532707 L-91,361.532707 L87.3935773,186.278142 C90.5058879,183.220595 95.4941121,183.220595 98.6064227,186.278142 Z" id="Triangle-Copy-10" fill="#00B993" mask="url(#mask-2)"></path>
                <g id="Group-Copy" mask="url(#mask-2)" fill="#FFFFFF">
                    <g transform="translate(201.500000, 164.000000) rotate(-180.000000) translate(-201.500000, -164.000000) translate(150.000000, 136.000000)">
                        <rect id="Rectangle-16-Copy" x="64" y="50" width="12.6" height="6" rx="3"></rect>
                        <path d="M59.3177951,32 C60.9344907,33.0749215 62,34.9130292 62,37 C62,40.3137085 59.3137085,43 56,43 L6,43 C2.6862915,43 5.72492311e-14,40.3137085 5.68434189e-14,37 C5.65878387e-14,34.9130292 1.06550934,33.0749215 2.68220488,32 L16,32 C19.3137085,32 22,29.3137085 22,26 C22,22.6862915 19.3137085,20 16,20 L11,20 C5.4771525,20 1,15.5228475 1,10 C1,4.4771525 5.4771525,1.01453063e-15 11,0 L93,0 C98.5228475,-1.01453063e-15 103,4.4771525 103,10 C103,15.5228475 98.5228475,20 93,20 L57,20 L40.0207973,20 C36.6176494,20 33.782616,22.6086074 33.5,26 C33.487248,26.153024 33.4808637,26.306512 33.4808637,26.4600664 C33.4808637,29.5196873 35.9611765,32 39.0207973,32 L59.3177951,32 Z" id="Combined-Shape"></path>
                    </g>
                </g>
                <rect id="Rectangle-17-Copy" fill="#02AD8A" mask="url(#mask-2)" x="16" y="308" width="371" height="110"></rect>
                <g id="Group-4-Copy" mask="url(#mask-2)">
                    <g transform="translate(132.000000, 210.000000)">
                        <g id="Group-2" stroke-width="1" fill="none" transform="translate(34.000000, 25.000000)">
                            <path d="M7.27891381,19 L63.2521741,19 L63.2521741,19 C66.9966349,19 70.03212,22.0354852 70.03212,25.7799459 C70.03212,26.2678316 69.979458,26.7542922 69.875049,27.2308751 L57,86 L13,86 L1.0051394,26.669063 C0.304642939,23.204153 2.54564283,19.827424 6.01055277,19.1269275 C6.42806314,19.04252 6.8529566,19 7.27891381,19 Z" id="Rectangle-5" fill="#EDAF9B"></path>
                            <path d="M7.32691008,18 L63.7912875,18 L63.7912875,18 C67.8045831,18 71.0580019,21.2534189 71.0580019,25.2667145 C71.0580019,25.8095304 70.9971809,26.3506373 70.876677,26.8799084 L67.4341505,42 C64.2377058,56.0392638 51.7542106,66 37.3556626,66 L34.3040711,66 C19.9829035,66 7.60542805,56.0011334 4.59476279,42 L1.0933175,25.7164885 C0.353029441,22.2737704 2.54378186,18.8827739 5.98649998,18.1424858 C6.42701366,18.0477621 6.87632725,18 7.32691008,18 Z" id="Rectangle-5-Copy" fill="#FFB8A2"></path>
                            <path d="M7.32691008,18 L63.7912875,18 L63.7912875,18 C67.8045831,18 71.0580019,21.2534189 71.0580019,25.2667145 C71.0580019,25.8095304 70.9971809,26.3506373 70.876677,26.8799084 L67.4341505,42 C64.2377058,56.0392638 51.7542106,66 37.3556626,66 L34.3040711,66 C19.9829035,66 7.60542805,56.0011334 4.59476279,42 L1.0933175,25.7164885 C0.353029441,22.2737704 2.54378186,18.8827739 5.98649998,18.1424858 C6.42701366,18.0477621 6.87632725,18 7.32691008,18 Z" id="Rectangle-5-Copy" fill="#FFB8A2"></path>
                            <path d="M35,0 L35,0 C42.7319865,-1.42034288e-15 49,6.2680135 49,14 L49,22 C49,29.7319865 42.7319865,36 35,36 L35,36 C27.2680135,36 21,29.7319865 21,22 L21,14 C21,6.2680135 27.2680135,1.42034288e-15 35,0 Z" id="Rectangle-6-Copy-8" fill="#EDAF9B"></path>
                        </g>
                        <path d="M20.6207708,31.4610427 L43.501733,44.6713724 C47.2312445,46.8246069 48.5090695,51.5935147 46.355835,55.3230262 C44.2026006,59.0525377 39.4336927,60.3303627 35.7041812,58.1771283 L5.3897718,40.6750959 C4.25401253,40.3074716 3.18591636,39.6726263 2.28385004,38.77056 C-0.761283347,35.7254266 -0.761283347,30.7882898 2.28385004,27.7431565 L27.7431565,2.28385004 C30.7882898,-0.761283347 35.7254266,-0.761283347 38.77056,2.28385004 C41.8156933,5.32898343 41.8156933,10.2661201 38.77056,13.3112535 L20.6207708,31.4610427 Z" id="Combined-Shape" fill="#FFB8A2"></path>
                        <path d="M109.620771,31.4610427 L132.501733,44.6713724 C136.231244,46.8246069 137.509069,51.5935147 135.355835,55.3230262 C133.202601,59.0525377 128.433693,60.3303627 124.704181,58.1771283 L94.3897718,40.6750959 C93.2540125,40.3074716 92.1859164,39.6726263 91.28385,38.77056 C88.2387167,35.7254266 88.2387167,30.7882898 91.28385,27.7431565 L116.743156,2.28385004 C119.78829,-0.761283347 124.725427,-0.761283347 127.77056,2.28385004 C130.815693,5.32898343 130.815693,10.2661201 127.77056,13.3112535 L109.620771,31.4610427 Z" id="Combined-Shape-Copy" fill="#FFB8A2" transform="translate(112.700905, 29.611552) scale(-1, 1) translate(-112.700905, -29.611552) "></path>
                        <g id="Group-3" stroke-width="1" fill="none" transform="translate(1.000000, 111.000000)">
                            <path d="M81.8533996,1.13476982 L122.422284,9.36419992 C130.424276,10.9874102 135.173013,17.2141829 133.028886,23.2720861 C130.884759,29.3299893 122.659705,32.9250182 114.657713,31.3018079 L74.0888283,23.0723778 L81.8533996,1.13476982 Z" id="Rectangle-6-Copy-2" fill="#EDAF9B"></path>
                            <path d="M55.0954891,1.59791104 L11.6288269,10.4151576 C3.62683538,12.0383678 -1.12190196,18.2651406 1.02222521,24.3230438 C3.16635238,30.3809469 11.3914067,33.9759759 19.3933983,32.3527656 L62.8600605,23.5355191 L55.0954891,1.59791104 Z" id="Rectangle-6-Copy-3" fill="#EDAF9B"></path>
                            <path d="M46,-7.10542736e-15 L90,-7.10542736e-15 L90,4.99985893 C90,17.1501234 80.1502645,26.9998589 68,26.9998589 L68,26.9998589 C55.8497355,26.9998589 46,17.1501234 46,4.99985893 L46,-7.10542736e-15 Z" id="Rectangle-12-Copy-2" fill="#3E2722"></path>
                            <path d="M68,13 L16,13 C7.71572875,13 1,17.4771525 1,23 C1,28.5228475 7.71572875,33 16,33 L68,33 L68,13 Z" id="Rectangle-9-Copy-2" fill="#FFB8A2"></path>
                            <path d="M67,13 L124,13 C129.522847,13 134,17.4771525 134,23 L134,23 C134,28.5228475 129.522847,33 124,33 L67,33 L67,13 Z" id="Rectangle-9-Copy" fill="#FFB8A2"></path>
                        </g>
                        <path d="M69.2577687,17 L69.2577687,17 C76.9897552,17 83.2577687,23.2680135 83.2577687,31 L83.2577687,39 C83.2577687,46.7319865 76.9897552,53 69.2577687,53 L69.2577687,53 C61.5257822,53 55.2577687,46.7319865 55.2577687,39 L55.2577687,31 C55.2577687,23.2680135 61.5257822,17 69.2577687,17 Z" id="Rectangle-6-Copy-8" fill="#FFB8A2"></path>
                        <path d="M84.9217132,21.9906388 C84.9732326,22.3122508 85,22.6421299 85,22.9782609 C85,23.0354636 84.9992248,23.0924852 84.9976843,23.1493159 C84.9992258,23.2297932 85,23.3104584 85,23.3913043 L84.9864503,23.3913043 C84.7739039,26.6204914 82.0873176,29.173913 78.8043478,29.173913 L53.1956522,29.173913 C49.773888,29.173913 47,26.4000251 47,22.9782609 C47,19.5564967 49.773888,16.7826087 53.1956522,16.7826087 L55.2744193,16.7826087 C55.4869657,13.5534216 58.1735519,11 61.4565217,11 L72.6086957,11 C78.9786613,11 84.2259984,15.8065442 84.9217132,21.9906388 Z" id="Combined-Shape" fill="#3E2722"></path>
                        <path d="M84.9217132,51.9906388 C84.9732326,52.3122508 85,52.6421299 85,52.9782609 C85,53.0354636 84.9992248,53.0924852 84.9976843,53.1493159 C84.9992258,53.2297932 85,53.3104584 85,53.3913043 L84.9864503,53.3913043 C84.7739039,56.6204914 82.0873176,59.173913 78.8043478,59.173913 L53.1956522,59.173913 C49.773888,59.173913 47,56.4000251 47,52.9782609 C47,49.5564967 49.773888,46.7826087 53.1956522,46.7826087 L55.2744193,46.7826087 C55.4869657,43.5534216 58.1735519,41 61.4565217,41 L72.6086957,41 C78.9786613,41 84.2259984,45.8065442 84.9217132,51.9906388 Z" id="Combined-Shape-Copy-2" fill="#3E2722"></path>
                        <circle id="Oval" fill="#3E2722" cx="69.5" cy="61.5" r="6.5"></circle>
                        <circle id="Oval-Copy-2" fill="#3E2722" cx="78" cy="59" r="5"></circle>
                        <circle id="Oval-Copy-3" fill="#3E2722" cx="107" cy="54" r="4"></circle>
                        <circle id="Oval-Copy-5" fill="#3E2722" cx="35" cy="54" r="4"></circle>
                        <circle id="Oval-Copy-4" fill="#3E2722" cx="104" cy="57" r="3"></circle>
                        <circle id="Oval-Copy-6" fill="#3E2722" cx="38" cy="57" r="3"></circle>
                        <circle id="Oval-Copy" fill="#3E2722" cx="58.5" cy="60.5" r="9.5"></circle>
                    </g>
                </g>
                <g id="Group-5-Copy" mask="url(#mask-2)">
                    <g transform="translate(156.000000, 21.000000)">
                        <path d="M50.2825798,48.7529708 L88.3589509,95.740833 C89.0543696,96.5990093 88.9224285,97.8584469 88.0642522,98.5538657 C87.7080677,98.8424979 87.2635348,99 86.8050852,99 L2.13886283,99 C1.03429333,99 0.138862831,98.1045695 0.138862831,97 C0.138862831,96.548751 0.291463729,96.1107631 0.571867473,95.7572106 L37.7991357,48.8184811 C40.5446303,45.3567705 45.5765643,44.7761627 49.0382748,47.5216573 C49.4968354,47.8853433 49.9141011,48.2982525 50.2825798,48.7529708 Z" id="Triangle-Copy-3" fill="#F2400A"></path>
                        <path d="M45,-5.32907052e-15 L45,-7.10542736e-15 C60.361906,7.98819111 70,23.8632907 70,41.1780056 L70,99 L19,99 L19,42.0688837 C19,24.2535513 29.0654823,7.96725884 45,0 Z" id="Rectangle-16" fill="#E2E5EB"></path>
                        <g id="Rectangle-6-Copy-8" stroke-width="1" fill="none" transform="translate(31.000000, 33.000000)">
                            <mask id="mask-4" fill="white">
                                <use xlink:href="#path-3"></use>
                            </mask>
                            <use id="Mask" fill="#071E37" xlink:href="#path-3"></use>
                            <path d="M13.5,13 L13.5,13 C17.6421356,13 21,16.3578644 21,20.5 L21,24.5 C21,28.6421356 17.6421356,32 13.5,32 L13.5,32 C9.35786438,32 6,28.6421356 6,24.5 L6,20.5 C6,16.3578644 9.35786438,13 13.5,13 Z" fill="#FFB8A2" mask="url(#mask-4)"></path>
                        </g>
                        <path d="M46.2426204,40.0072372 C46.3278019,40.002434 46.4136167,40 46.5,40 C48.9852814,40 51,42.0147186 51,44.5 C51,46.9852709 48.9852984,48.999983 46.5000315,49 L36.5,49 C35.1192881,49 34,47.8807119 34,46.5 C34,45.1192881 35.1192881,44 36.5,44 L37.1707057,44 C37.0601542,43.6872211 37,43.3506354 37,43 C37,41.3431458 38.3431458,40 40,40 L46,40 C46.0814652,40 46.1623616,40.0024353 46.2426204,40.0072372 Z" id="Combined-Shape" fill="#FFD63F"></path>
                        <rect id="Rectangle-18" fill="#071E37" x="25" y="99" width="40" height="7"></rect>
                    </g>
                </g>
                <rect id="Rectangle-Copy" fill="#3E2722" mask="url(#mask-2)" x="156" y="367" width="89" height="16" rx="8"></rect>
                <rect id="Rectangle-Copy-2" fill="#3E2722" mask="url(#mask-2)" transform="translate(211.074029, 371.178203) rotate(-30.000000) translate(-211.074029, -371.178203) " x="170.574029" y="363.178203" width="81" height="16" rx="8"></rect>
                <g id="Group-3-Copy" mask="url(#mask-2)">
                    <g transform="translate(167.000000, 280.000000)">
                        <path d="M34,100 C51.673112,100 66,85.673112 66,68 C66,50.326888 51.673112,36 34,36 C16.326888,36 2,50.326888 2,68 C2,85.673112 16.326888,100 34,100 Z" id="Oval-2" fill="#F2400A"></path>
                        <path d="M34,87 C42.2842712,87 49,80.2842712 49,72 C49,63.7157288 42.2842712,57 34,57 C25.7157288,57 19,63.7157288 19,72 C19,80.2842712 25.7157288,87 34,87 Z" id="Oval-2" fill="#FFD63F"></path>
                        <circle id="Oval-2-Copy-4" fill="#F2400A" cx="21" cy="41" r="16"></circle>
                        <circle id="Oval-2-Copy-7" fill="#F2400A" cx="44" cy="35" r="16"></circle>
                        <circle id="Oval-2-Copy-8" fill="#F2400A" cx="27" cy="19" r="12"></circle>
                        <circle id="Oval-2-Copy-9" fill="#F2400A" cx="35.5" cy="8.5" r="8.5"></circle>
                        <circle id="Oval-2-Copy-9" fill="#FFD63F" cx="31.5" cy="57.5" r="8.5"></circle>
                        <circle id="Oval-2-Copy-10" fill="#F2400A" cx="5" cy="9" r="5"></circle>
                    </g>
                </g>
                <rect id="Rectangle-Copy-3" fill="#3E2722" mask="url(#mask-2)" transform="translate(186.011851, 373.678203) rotate(-330.000000) translate(-186.011851, -373.678203) " x="152.511851" y="365.678203" width="67" height="16" rx="8"></rect>
                <rect id="Rectangle-3-Copy-4" fill="#E2E5EB" mask="url(#mask-2)" x="297" y="311" width="76" height="33" rx="16.5"></rect>
                <rect id="Rectangle-3-Copy-5" fill="#B8C0D0" mask="url(#mask-2)" x="274" y="325" width="113" height="44" rx="22"></rect>
                <rect id="Rectangle-3-Copy-6" fill="#E2E5EB" mask="url(#mask-2)" x="16" y="295" width="57" height="28" rx="14"></rect>
                <rect id="Rectangle-3-Copy-7" fill="#B8C0D0" mask="url(#mask-2)" x="25" y="308" width="89" height="44" rx="22"></rect>
                <path d="M300.02995,276.838911 L300.02995,276.838911 C306.234593,276.838911 311.264451,281.868768 311.264451,288.073412 C311.264451,288.442337 311.246278,288.811039 311.209999,289.178177 L302.665156,375.650657 C302.531258,377.005681 301.391573,378.038298 300.02995,378.038298 L300.02995,378.038298 C298.668326,378.038298 297.528642,377.005681 297.394744,375.650657 L288.849901,289.178177 C288.239756,283.003606 292.750614,277.503507 298.925185,276.893362 C299.292322,276.857083 299.661024,276.838911 300.02995,276.838911 Z" id="Rectangle-12-Copy-7" fill="#3E2722" mask="url(#mask-2)" transform="translate(300.029643, 327.438298) rotate(-330.000000) translate(-300.029643, -327.438298) "></path>
            </g>
            <mask id="mask-6" fill="white">
                <use xlink:href="#path-5"></use>
            </mask>
            <use id="Oval-8-Copy" stroke="#FFFFFF" stroke-width="8" stroke-linecap="round" stroke-linejoin="round" xlink:href="#path-5"></use>
        </g>
    </g>
</svg>