<?xml version="1.0" encoding="UTF-8"?>
<svg width="544px" height="384px" viewBox="0 0 544 384" version="1.1" xmlns="http://www.w3.org/2000/svg" xmlns:xlink="http://www.w3.org/1999/xlink">
    <!-- Generator: Sketch 50 (54983) - http://www.bohemiancoding.com/sketch -->
    <title>4heroes/block3</title>
    <desc>Created with Sketch.</desc>
    <defs>
        <rect id="path-1" x="0" y="0" width="544" height="384" rx="8"></rect>
    </defs>
    <g id="4heroes/block3" stroke="none" stroke-width="1" fill="none" fill-rule="evenodd">
        <mask id="mask-2" fill="white">
            <use xlink:href="#path-1"></use>
        </mask>
        <use id="Mask" fill="#028D70" xlink:href="#path-1"></use>
        <circle id="Oval-5" fill="#00B993" mask="url(#mask-2)" cx="262.5" cy="78.5" r="174.5"></circle>
        <path d="M422.154267,77 L422.154267,77 C443.086733,77 461.109254,91.7749334 465.214448,112.300904 L478.240482,177.431071 C479.106977,181.763549 476.297243,185.97815 471.964765,186.844645 C471.44818,186.947963 470.922652,187 470.395836,187 L373,187 C368.581722,187 365,183.418278 365,179 C365,178.449856 365.056748,177.901179 365.169343,177.362681 L378.786331,112.237956 C383.079076,91.7074351 401.179761,77 422.154267,77 Z" id="Rectangle-35" fill="#071E37" mask="url(#mask-2)"></path>
        <path d="M422,99 L422,99 C435.933735,99 447.909319,108.883532 450.552199,122.564326 L461.161411,177.4826 C461.999448,181.820673 459.162108,186.016739 454.824036,186.854775 C454.324011,186.951371 453.815905,187 453.306636,187 L390.693364,187 C386.275086,187 382.693364,183.418278 382.693364,179 C382.693364,178.490731 382.741993,177.982625 382.838589,177.4826 L393.447801,122.564326 C396.090681,108.883532 408.066265,99 422,99 Z" id="Rectangle-35" fill="#6932F4" mask="url(#mask-2)"></path>
        <g id="Group-3" mask="url(#mask-2)">
            <g transform="translate(217.000000, 99.000000)">
                <polygon id="Rectangle-6-Copy-5" stroke="none" fill="#FFB8A2" fill-rule="evenodd" points="193 47 217 47 217 87 193 87"></polygon>
                <path d="M204,-7.10542736e-15 L206.000163,-5.55556761e-05 C220.911851,-5.55556761e-05 233.000163,12.0882562 233.000163,26.9999444 C233.000163,26.999963 233.000163,26.9999815 233.000163,27 L233,52 C232.999969,66.9116665 220.911667,78.9999444 206,78.9999444 L204,79 C189.088312,79 177,66.9116882 177,52 L177,27 C177,12.0883118 189.088312,-4.36619467e-15 204,-7.10542736e-15 Z" id="Rectangle-6-Copy-6" stroke="none" fill="#FFB8A2" fill-rule="evenodd"></path>
                <path d="M204,-7.10542736e-15 L206.000163,-5.55556761e-05 C220.911851,-5.55556761e-05 233.000163,12.0882562 233.000163,26.9999444 C233.000163,26.999963 233.000163,26.9999815 233.000163,27 L233,52 C232.999969,66.9116665 220.911667,78.9999444 206,78.9999444 L204,79 C189.088312,79 177,66.9116882 177,52 L177,27 C177,12.0883118 189.088312,-4.36619467e-15 204,-7.10542736e-15 Z" id="Rectangle-6-Copy-6" stroke="none" fill="#ECAA96" fill-rule="evenodd"></path>
                <path d="M197,15 L213.000163,14.9999588 C224.045858,14.9999588 233.000163,23.9542639 233.000163,34.9999588 C233.000163,34.9999726 233.000163,34.9999863 233.000163,35 L233,74 C232.999977,85.0456789 224.045679,93.9999588 213,93.9999588 L197,94 C185.954305,94 177,85.045695 177,74 L177,35 C177,23.954305 185.954305,15 197,15 Z" id="Rectangle-6-Copy-6" stroke="none" fill="#FFB8A2" fill-rule="evenodd"></path>
                <polyline id="Path-3" stroke="#2E1FA6" stroke-width="42" fill="none" stroke-linejoin="round" points="70 161 129.503001 161 161 108 249 108 286 161 286 227"></polyline>
                <path d="M181.34044,87 L228.750851,87 C249.185387,87 265.750851,103.565464 265.750851,124 C265.750851,125.792393 265.620608,127.582417 265.36115,129.355932 L259.78005,167.505359 C258.055596,179.292805 247.945748,188.03124 236.032829,188.03124 L174.058462,188.03124 C162.145543,188.03124 152.035695,179.292805 150.311241,167.505359 L144.730141,129.355932 C141.772141,109.136622 155.765198,90.3477007 175.984508,87.389701 C177.758022,87.1302433 179.548047,87 181.34044,87 Z" id="Rectangle-5" stroke="none" fill="#2E1FA6" fill-rule="evenodd"></path>
                <path d="M135.756914,87 L274.292036,87 C276.501175,87 278.292036,88.790861 278.292036,91 C278.292036,91.2232763 278.273342,91.4461606 278.236149,91.6663173 L270.403624,138.029144 C268.452634,149.577584 258.451031,158.03124 246.738951,158.03124 L163.309999,158.03124 C151.59792,158.03124 141.596316,149.577584 139.645326,138.029144 L131.812802,91.6663173 C131.444805,89.4880443 132.912323,87.4238847 135.090596,87.0558878 C135.310753,87.0186946 135.533637,87 135.756914,87 Z" id="Rectangle-5" stroke="none" fill="#071E37" fill-rule="evenodd"></path>
                <rect id="Rectangle-2-Copy" stroke="none" fill="#8150FD" fill-rule="evenodd" x="64" y="135" width="16" height="60" rx="4"></rect>
                <polygon id="Rectangle-6-Copy-4" stroke="none" fill="#FFB8A2" fill-rule="evenodd" points="191 77 218 77 218 117 196 117"></polygon>
                <rect id="Rectangle-4-Copy" stroke="none" fill="#FFFFFF" fill-rule="evenodd" x="209.427063" y="26.805648" width="18" height="6" rx="3"></rect>
                <rect id="Rectangle-4-Copy-2" stroke="none" fill="#FFFFFF" fill-rule="evenodd" x="182.427063" y="26.805648" width="18" height="6" rx="3"></rect>
                <g id="Group-Copy" stroke="none" stroke-width="1" fill="none" fill-rule="evenodd" transform="translate(0.000000, 21.000000)"></g>
                <g id="Group-6-Copy" stroke="none" stroke-width="1" fill="none" fill-rule="evenodd" transform="translate(24.000000, 80.000000)"></g>
            </g>
        </g>
        <path d="M422,227.5 L422,227.5 C439.673112,227.5 454,213.173112 454,195.5 L454,171 C454,153.326888 439.673112,139 422,139 L422,139 C404.326888,139 390,153.326888 390,171 L390,195.5 C390,213.173112 404.326888,227.5 422,227.5 Z" id="Oval-2" fill="#FFFFFF" mask="url(#mask-2)"></path>
        <path d="M417.005888,106.005888 L427.5196,106.005888 C428.62417,106.005888 429.5196,106.901319 429.5196,108.005888 C429.5196,108.536321 429.308887,109.045029 428.933814,109.420102 L418.420102,119.933814 C417.639053,120.714863 416.372723,120.714863 415.591675,119.933814 C415.216602,119.558741 415.005888,119.050033 415.005888,118.5196 L415.005888,108.005888 C415.005888,106.901319 415.901319,106.005888 417.005888,106.005888 Z" id="Rectangle-33" fill="#0A2440" mask="url(#mask-2)" transform="translate(422.262744, 113.262744) rotate(-135.000000) translate(-422.262744, -113.262744) "></path>
        <path d="M415.151623,102.204308 L429.576528,102.204308 L440.463744,91.3294133 C441.245241,90.5488024 442.51158,90.5495205 443.292191,91.3310173 C443.653206,91.692442 443.862238,92.1783091 443.87641,92.6889546 C444.472888,114.181765 443.326206,126.373092 440.436363,129.262936 C437.546703,132.152595 425.312047,133.391052 403.732394,132.978306 L403.732393,132.978316 C402.62802,132.957193 401.749872,132.044798 401.770995,130.940425 C401.78081,130.427272 401.987527,129.937532 402.34837,129.572546 L413.151623,118.645253 L413.151623,104.204308 C413.151623,103.099738 414.047054,102.204308 415.151623,102.204308 Z" id="Rectangle-33" fill="#071E37" mask="url(#mask-2)" transform="translate(422.900055, 111.900055) rotate(-135.000000) translate(-422.900055, -111.900055) "></path>
        <path d="M468.993028,200.993028 L474.616219,200.993028 C475.720788,200.993028 476.616219,201.888459 476.616219,202.993028 C476.616219,203.523461 476.405505,204.032169 476.030432,204.407242 L470.407242,210.030432 C469.626193,210.811481 468.359863,210.811481 467.578814,210.030432 C467.203742,209.65536 466.993028,209.146652 466.993028,208.616219 L466.993028,202.993028 C466.993028,201.888459 467.888459,200.993028 468.993028,200.993028 Z" id="Rectangle-33" fill="#02AD8A" mask="url(#mask-2)" transform="translate(471.804623, 205.804623) rotate(-135.000000) translate(-471.804623, -205.804623) "></path>
        <path d="M500.011216,453.997981 L445.144025,453.997981 C443.445722,442.124952 433.234788,432.997981 420.892136,432.997981 L346,432.997981 L369.347716,305.011779 C369.961813,301.006547 374.154545,298 379.125878,298 L463.52461,298 C468.495943,298 472.688675,301.006547 473.302772,305.011779 L500.011216,453.997981 Z" id="Combined-Shape" fill="#2E1FA6" mask="url(#mask-2)"></path>
        <path d="M438.058661,298 L379.444401,298 C374.473068,298 370.280337,301.006547 369.66624,305.011779 L354,387.189309 C409.938461,387.73045 437.957968,374.83334 438.05852,348.497981 C438.058708,348.448709 438.058755,331.616049 438.058661,298 Z" id="Rectangle-5-Copy" fill="#071E37" mask="url(#mask-2)"></path>
        <path d="M402,284 L414,284 C415.104569,284 416,284.895431 416,286 L416,414 C416,415.104569 415.104569,416 414,416 L402,416 C400.895431,416 400,415.104569 400,414 L400,286 C400,284.895431 400.895431,284 402,284 Z" id="Rectangle-2-Copy-3" fill="#5D27E5" mask="url(#mask-2)" transform="translate(408.000000, 350.000000) rotate(-360.000000) translate(-408.000000, -350.000000) "></path>
        <path d="M397,286.99992 L409,286.99992 C410.104569,286.99992 411,287.89535 411,288.99992 L411,373 C411,374.104569 410.104569,375 409,375 L397,375 C395.895431,375 395,374.104569 395,373 L395,288.99992 C395,287.89535 395.895431,286.99992 397,286.99992 Z" id="Rectangle-2-Copy-2" fill="#6932F4" mask="url(#mask-2)" transform="translate(403.000000, 331.000000) rotate(-360.000000) translate(-403.000000, -331.000000) "></path>
        <rect id="Rectangle-Copy" fill="#8150FD" mask="url(#mask-2)" x="374" y="280" width="96" height="18" rx="4"></rect>
        <path d="M399,278 L411,278 C413.761424,278 416,280.238576 416,283 L416,294 C416,297.313708 413.313708,300 410,300 L400,300 C396.686292,300 394,297.313708 394,294 L394,283 C394,280.238576 396.238576,278 399,278 Z" id="Rectangle-Copy-2" fill="#5D27E5" mask="url(#mask-2)"></path>
        <path d="M398,282 L416,300 L404,300 C400.686292,300 398,297.313708 398,294 L398,282 Z" id="Rectangle-Copy-2" fill="#6932F4" mask="url(#mask-2)" transform="translate(407.000000, 291.000000) scale(-1, 1) translate(-407.000000, -291.000000) "></path>
        <path d="M394,282 L412,300 L400,300 C396.686292,300 394,297.313708 394,294 L394,282 Z" id="Rectangle-Copy-2" fill="#8150FD" mask="url(#mask-2)"></path>
        <rect id="Rectangle-48" fill="#3E2722" mask="url(#mask-2)" x="254" y="123" width="14" height="324" rx="7"></rect>
        <circle id="Oval-5" fill="#FFFFFF" mask="url(#mask-2)" cx="263" cy="79" r="24"></circle>
        <path d="M312,83 C312,55.9380473 290.061953,34 263,34 C235.938047,34 214,55.9380473 214,83 C214,110.061953 228,103 241,128" id="Oval-5" stroke="#3E2722" stroke-width="14" stroke-linecap="round" mask="url(#mask-2)" transform="translate(263.000000, 81.000000) rotate(-180.000000) translate(-263.000000, -81.000000) "></path>
        <circle id="Oval-5" fill="#FFFFFF" opacity="0.200000003" mask="url(#mask-2)" cx="263" cy="79" r="82"></circle>
        <rect id="Rectangle-2" fill="#8150FD" mask="url(#mask-2)" transform="translate(508.000000, 326.000000) rotate(-270.000000) translate(-508.000000, -326.000000) " x="500" y="296" width="16" height="60" rx="4"></rect>
        <circle id="Oval-5" fill="#FFFFFF" mask="url(#mask-2)" cx="247.5" cy="64.5" r="13.5"></circle>
        <circle id="Oval-5-Copy" fill="#FFFFFF" mask="url(#mask-2)" cx="330" cy="32" r="7"></circle>
        <circle id="Oval-3" fill="#FFB8A2" mask="url(#mask-2)" cx="261" cy="251" r="15"></circle>
        <circle id="Oval-3-Copy" fill="#FFB8A2" mask="url(#mask-2)" cx="500" cy="351" r="15"></circle>
        <rect id="Rectangle-49" fill="#FFB8A2" mask="url(#mask-2)" x="267" y="244" width="14" height="15"></rect>
        <rect id="Rectangle-49-Copy" fill="#FFB8A2" mask="url(#mask-2)" x="493" y="334" width="14" height="15"></rect>
    </g>
</svg>