<?xml version="1.0" encoding="UTF-8"?>
<svg width="410px" height="410px" viewBox="0 0 410 410" version="1.1" xmlns="http://www.w3.org/2000/svg" xmlns:xlink="http://www.w3.org/1999/xlink">
    <!-- Generator: Sketch 48.2 (47327) - http://www.bohemiancoding.com/sketch -->
    <title>Approach/ill_2</title>
    <desc>Created with Sketch.</desc>
    <defs>
        <circle id="path-1" cx="201" cy="201" r="201"></circle>
        <path d="M15.399999,0 L306.600001,1.77635684e-15 C312.343762,7.21245089e-16 317,4.65623815 317,10.399999 L317,235 L5,235 L5,10.399999 C5,4.65623815 9.65623815,2.83146859e-15 15.399999,1.77635684e-15 Z" id="path-3"></path>
        <linearGradient x1="36.0533379%" y1="62.0682919%" x2="100%" y2="76.4209781%" id="linearGradient-4">
            <stop stop-color="#FFD63F" offset="0%"></stop>
            <stop stop-color="#FFB33F" offset="100%"></stop>
        </linearGradient>
        <linearGradient x1="50%" y1="0%" x2="50%" y2="100%" id="linearGradient-5">
            <stop stop-color="#F3F4F7" offset="0%"></stop>
            <stop stop-color="#E2E5EB" offset="100%"></stop>
        </linearGradient>
        <linearGradient x1="50%" y1="0%" x2="50%" y2="100%" id="linearGradient-6">
            <stop stop-color="#F2F4F7" offset="0%"></stop>
            <stop stop-color="#E2E5EB" offset="100%"></stop>
        </linearGradient>
        <linearGradient x1="50%" y1="0%" x2="50%" y2="100%" id="linearGradient-7">
            <stop stop-color="#E6E8EE" offset="0%"></stop>
            <stop stop-color="#F2F4F6" offset="100%"></stop>
        </linearGradient>
        <linearGradient x1="50%" y1="0%" x2="50%" y2="100%" id="linearGradient-8">
            <stop stop-color="#E89B83" offset="0%"></stop>
            <stop stop-color="#FFB8A2" offset="100%"></stop>
        </linearGradient>
        <circle id="path-9" cx="201" cy="201" r="201"></circle>
    </defs>
    <g id="Approach/ill_2" stroke="none" stroke-width="1" fill="none" fill-rule="evenodd" transform="translate(-67.000000, -12.000000)">
        <g transform="translate(71.000000, 16.000000)">
            <g>
                <mask id="mask-2" fill="white">
                    <use xlink:href="#path-1"></use>
                </mask>
                <use id="Oval-8" fill="#2877FF" xlink:href="#path-1"></use>
                <path d="M182.5,513 C298.75594,513 393,418.75594 393,302.5 C393,224.99604 322.833333,154.829373 182.5,92 C42.1666667,154.829373 -28,224.99604 -28,302.5 C-28,418.75594 66.2440602,513 182.5,513 Z" id="Oval-8" fill="#2E1FA6" opacity="0.300000012" mask="url(#mask-2)"></path>
                <g id="Group-2" mask="url(#mask-2)">
                    <g transform="translate(-27.000000, 92.000000)">
                        <g id="Rectangle" fill="none">
                            <use fill="#FFFFFF" fill-rule="evenodd" xlink:href="#path-3"></use>
                            <path d="M15.399999,0 L306.600001,1.77635684e-15 C312.343762,7.21245089e-16 317,4.65623815 317,10.399999 L317,235 L5,235 L5,10.399999 C5,4.65623815 9.65623815,2.83146859e-15 15.399999,1.77635684e-15 Z"></path>
                        </g>
                        <path d="M10,231 L312,231 C317.522847,231 322,235.477153 322,241 L0,241 L0,241 C-6.76353751e-16,235.477153 4.4771525,231 10,231 Z" id="Rectangle-Copy" fill="#0A2440" fill-rule="evenodd" transform="translate(161.000000, 236.190217) rotate(-180.000000) translate(-161.000000, -236.190217) "></path>
                        <g id="Group-4" stroke-width="1" fill="none" fill-rule="evenodd" transform="translate(95.000000, 47.000000)" stroke-linecap="round" stroke-linejoin="round">
                            <ellipse id="Oval-12" stroke="#0A2440" stroke-width="6.2399994" cx="17.4451613" cy="118.907609" rx="12.4645161" ry="12.4565217"></ellipse>
                            <path d="M155.593548,90.8804348 C155.593548,52.7562785 124.667979,21.8505435 86.5193548,21.8505435 C48.3707311,21.8505435 17.4451613,52.7562785 17.4451613,90.8804348" id="Oval-12-Copy" stroke="#0A2440" stroke-width="6.2399994"></path>
                            <polyline id="Path-9" stroke="#00B993" stroke-width="6.2399994" points="143.129032 117.350543 159.748387 130.845109 185.716129 100.222826"></polyline>
                            <path d="M46.0096774,120.464674 L133.26129,120.464674" id="Line-2" stroke="#B8C0D0" stroke-width="6.2399994" stroke-dasharray="4.159999599456796,11.43999858856205"></path>
                            <g id="Group" transform="translate(0.306452, 0.041038)" stroke="#DC3A09" stroke-width="6.2399994">
                                <path d="M50.9279355,62.6579991 L64.6004485,76.321743" id="Line"></path>
                                <path d="M50.9279355,62.6579991 L64.6004485,76.321743" id="Line" transform="translate(57.908065, 69.633651) scale(-1, 1) translate(-57.908065, -69.633651) "></path>
                                <path d="M0.29083871,14.5831692 L13.9633517,28.246913" id="Line"></path>
                                <path d="M0.29083871,14.5831692 L13.9633517,28.246913" id="Line" transform="translate(7.270968, 21.558821) scale(-1, 1) translate(-7.270968, -21.558821) "></path>
                                <path d="M79.752129,113.967005 L93.4246421,127.630749" id="Line"></path>
                                <path d="M79.752129,113.967005 L93.4246421,127.630749" id="Line" transform="translate(86.732258, 120.942657) scale(-1, 1) translate(-86.732258, -120.942657) "></path>
                                <path d="M148.306968,0.290652174 L161.979481,13.954396" id="Line"></path>
                                <path d="M148.306968,0.290652174 L161.979481,13.954396" id="Line" transform="translate(155.287097, 7.266304) scale(-1, 1) translate(-155.287097, -7.266304) "></path>
                            </g>
                        </g>
                    </g>
                </g>
                <g id="Group-9" mask="url(#mask-2)">
                    <g transform="translate(255.000000, 150.000000)">
                        <polygon id="Rectangle-2-Copy-6" fill="#98A0B1" points="93 108 129 108 129 131.625 129 162 93 162"></polygon>
                        <polygon id="Rectangle-2-Copy-7" fill="#451FA3" transform="translate(111.000000, 91.000000) scale(1, -1) translate(-111.000000, -91.000000) " points="93 74 129 74 129 108 93 108"></polygon>
                        <polygon id="Rectangle-2-Copy-8" fill="#0A2440" points="93 108 129 108 129 131.625 129 162 93 162"></polygon>
                        <g id="Group-Copy-2" stroke-width="1" fill="none" transform="translate(78.000000, 109.000000)">
                            <path d="M22.5683408,92 L22.5683408,92 C24.5013374,92 26.0683408,93.5670034 26.0683408,95.5 L26.0683408,104.5 C26.0683408,106.432997 24.5013374,108 22.5683408,108 L22.5683408,108 C20.6353442,108 19.0683408,106.432997 19.0683408,104.5 L19.0683408,95.5 C19.0683408,93.5670034 20.6353442,92 22.5683408,92 Z" id="Rectangle-6-Copy-4" fill="#FFB8A2"></path>
                            <path d="M23.5683408,37 C27.7104764,37 31.0683408,40.4138288 31.0683408,44.625 L31.0683408,94.0960005 C31.0683408,96.2521199 29.3491144,98 27.2283412,98 L19.9083403,98 C17.7875671,98 16.0683408,96.2521199 16.0683408,94.0960005 L16.0683408,44.625 C16.0683408,40.4138288 19.4262052,37 23.5683408,37 Z" id="Rectangle-6-Copy-5" fill="#071E37"></path>
                            <path d="M5.63229321,115 C4.61402109,115 2.06834078,114.454545 2.06834078,112.272727 C2.06834078,110.090909 4.10488503,109 5.63229321,109 C7.1597014,109 17.8515587,106.272727 17.8515587,103 L17.8515587,98 L27.0160078,98 L27.0160078,103 C27.0160078,105.727273 29.2779246,108.888051 29.052552,111.181818 C28.9023037,112.710996 28.2234556,113.983723 27.0160078,115 C13.4390462,115 6.31114129,115 5.63229321,115 Z" id="Path-3-Copy" fill="url(#linearGradient-4)" transform="translate(15.568341, 106.500000) rotate(-360.000000) translate(-15.568341, -106.500000) "></path>
                            <path d="M2.30226485,114.4047 L27.9966952,113.013972 C29.6037813,112.926987 30.9770969,114.159273 31.0640815,115.766359 C31.0669205,115.818811 31.0683408,115.87133 31.0683408,115.923858 L31.0683408,115.923858 C31.0683408,117.622764 29.6911053,119 27.9921992,119 L2.30553469,119 C1.06996661,119 0.0683407808,117.998374 0.0683407808,116.762806 L0.0683407808,116.762806 C0.0683407808,115.508147 1.04943992,114.47251 2.30226485,114.4047 Z" id="Rectangle-8-Copy" fill="#071E37" transform="translate(15.412205, 115.936987) rotate(-360.000000) translate(-15.412205, -115.936987) "></path>
                            <rect id="Rectangle-6-Copy-10" fill="#0A2440" transform="translate(23.554526, 25.825075) rotate(-360.000000) translate(-23.554526, -25.825075) " x="16.0683408" y="0" width="15" height="52" rx="7.5"></rect>
                        </g>
                        <g id="Group-2-Copy-4" stroke-width="1" fill="none" transform="translate(99.000000, 109.000000)">
                            <path d="M19.5,92 L19.5,92 C21.4329966,92 23,93.5670034 23,95.5 L23,104.5 C23,106.432997 21.4329966,108 19.5,108 L19.5,108 C17.5670034,108 16,106.432997 16,104.5 L16,95.5 C16,93.5670034 17.5670034,92 19.5,92 Z" id="Rectangle-6-Copy-3" fill="#FFB8A2"></path>
                            <path d="M19.5,37 C23.6421356,37 27,40.4138288 27,44.625 L27,94.0960005 C27,96.2521199 25.2807736,98 23.1600005,98 L15.8399995,98 C13.7192264,98 12,96.2521199 12,94.0960005 L12,44.625 C12,40.4138288 15.3578644,37 19.5,37 Z" id="Rectangle-6-Copy" fill="#071E37"></path>
                            <path d="M5.56395243,115 C4.54568031,115 2,114.454545 2,112.272727 C2,110.090909 4.03654425,109 5.56395243,109 C7.09136061,109 17.7832179,106.272727 17.7832179,103 L17.7832179,98 L26.947667,98 L26.947667,103 C26.947667,105.727273 29.2095838,108.888051 28.9842113,111.181818 C28.8339629,112.710996 28.1551148,113.983723 26.947667,115 C13.3707054,115 6.24280051,115 5.56395243,115 Z" id="Path-3" fill="#FFD63F" transform="translate(15.500000, 106.500000) rotate(-360.000000) translate(-15.500000, -106.500000) "></path>
                            <path d="M2.23392406,114.4047 L27.9283544,113.013972 C29.5354405,112.926987 30.9087561,114.159273 30.9957407,115.766359 C30.9985797,115.818811 31,115.87133 31,115.923858 L31,115.923858 C31,117.622764 29.6227645,119 27.9238584,119 L2.23719391,119 C1.00162583,119 1.51313449e-16,117.998374 0,116.762806 L0,116.762806 C-1.53651378e-16,115.508147 0.981099135,114.47251 2.23392406,114.4047 Z" id="Rectangle-8" fill="#071E37" transform="translate(15.343864, 115.936987) rotate(-360.000000) translate(-15.343864, -115.936987) "></path>
                            <rect id="Rectangle-6-Copy-2" fill="#0A2440" transform="translate(19.486185, 25.825075) rotate(-360.000000) translate(-19.486185, -25.825075) " x="12" y="0" width="15" height="52" rx="7.5"></rect>
                        </g>
                        <path d="M88,47 L137,47 L137,47 C140.277811,47 142.935001,49.6571905 142.935001,52.935001 C142.935001,53.5181473 142.849058,54.09811 142.679941,54.6561952 L140,63.5 C137.030626,73.2989346 127.99802,80 117.75906,80 L107.102631,80 C97.0051036,80 88.1568353,73.2417295 85.5,63.5 L82.8418218,53.7533467 C82.064881,50.9045636 83.744441,47.9653336 86.5932241,47.1883927 C87.0516933,47.0633557 87.5247861,47 88,47 Z" id="Rectangle-5-Copy-4" fill="#5D27E5"></path>
                        <path d="M119,47 L119,162 C119,164.209139 120.790861,166 123,166 L139,166 L139,47 L119,47 Z" id="Path-2-Copy-4" fill="url(#linearGradient-5)"></path>
                        <path d="M119,45 L119,83 L119,83 C123.970563,83 128,78.9705627 128,74 L128,45 L119,45 Z" id="Path-2-Copy-5" fill="#FFFFFF"></path>
                        <path d="M61.4772871,78.4488758 L61.4772871,78.4488758 C61.4772074,75.5884899 63.7959437,73.2696243 66.6563296,73.2695446 C66.6563778,73.2695446 66.6564259,73.2695446 66.656474,73.2695446 L105.502419,73.2695446 C108.362884,73.2695446 110.68175,75.5884102 110.68175,78.4488758 L110.68175,78.4488758 C110.68175,81.3093415 108.362884,83.6282071 105.502419,83.6282071 L66.6567627,83.6282071 C63.7962737,83.6282071 61.4773669,81.3093649 61.4772871,78.4488758 Z" id="Rectangle-6-Copy-23" fill="#FFB8A2" transform="translate(86.206103, 78.475647) rotate(-90.000000) translate(-86.206103, -78.475647) "></path>
                        <path d="M39.0001444,96.1793312 L39.0001444,96.1793312 C39.0000646,93.3189453 41.3188009,91.0000797 44.1791869,91 C44.179235,91 44.1792831,91 44.1793312,91 L83.0252759,91 C85.8857415,91 88.2046071,93.3188656 88.2046071,96.1793312 L88.2046071,96.1793312 C88.2046071,99.0397969 85.8857415,101.358662 83.0252759,101.358662 L44.17962,101.358662 C41.319131,101.358662 39.0002241,99.0398202 39.0001444,96.1793312 Z" id="Rectangle-6-Copy-24" fill="#FFB8A2" transform="translate(63.475647, 96.206103) rotate(-360.000000) translate(-63.475647, -96.206103) "></path>
                        <path d="M83.5,47 L83.5,47 C88.1944204,47 92,50.8055796 92,55.5 L92,92.5 C92,97.1944204 88.1944204,101 83.5,101 L83.5,101 C78.8055796,101 75,97.1944204 75,92.5 L75,55.5 C75,50.8055796 78.8055796,47 83.5,47 Z" id="Rectangle-Copy-4" fill="url(#linearGradient-6)"></path>
                        <path d="M70,72.5 L70,72.5 C74.6944204,72.5 78.5,76.3055796 78.5,81 L78.5,118.5 L61.5,118.5 L61.5,81 C61.5,76.3055796 65.3055796,72.5 70,72.5 Z" id="Rectangle-Copy-5" fill="url(#linearGradient-7)" transform="translate(70.000000, 95.500000) rotate(-270.000000) translate(-70.000000, -95.500000) "></path>
                        <path d="M84,47 L84,166 L100,166 C102.209139,166 104,164.209139 104,162 L104,47 L84,47 Z" id="Path-2-Copy-3" fill="url(#linearGradient-5)"></path>
                        <path d="M95,45 L95,83 L95,83 C99.9705627,83 104,78.9705627 104,74 L104,45 L95,45 Z" id="Path-2-Copy-6" fill="#FFFFFF" transform="translate(99.500000, 64.000000) scale(-1, 1) translate(-99.500000, -64.000000) "></path>
                        <circle id="Oval-9-Copy-6" fill="#FFB8A2" cx="38" cy="96" r="9"></circle>
                        <path d="M106,34 L117,34 L117,50.5 C117,53.5375661 114.537566,56 111.5,56 L111.5,56 C108.462434,56 106,53.5375661 106,50.5 L106,34 Z" id="Rectangle-6-Copy-25" fill="url(#linearGradient-8)"></path>
                        <rect id="Rectangle-6-Copy-26" fill="#FFB8A2" x="98" y="10" width="27" height="35" rx="13.5"></rect>
                        <path d="M141,139 C138.238576,139 136,136.669037 136,134 L136,95 C136,92.3309627 138.238576,90 141,90 C143.761424,90 146,92.3309627 146,95 L146,134 C146,136.669037 143.761424,139 141,139 Z" id="Rectangle-6-Copy-27" fill="#FFB8A2"></path>
                        <circle id="Oval-9-Copy-7" fill="#FFB8A2" cx="141" cy="138" r="9"></circle>
                        <path d="M139,104 C136.238576,104 134,101.669037 134,99 L134,60 C134,57.3309627 136.238576,55 139,55 C141.761424,55 144,57.3309627 144,60 L144,99 C144,101.669037 141.761424,104 139,104 Z" id="Rectangle-6-Copy-28" fill="#FFB8A2"></path>
                        <path d="M139.5,47 L139.5,47 C144.19442,47 148,50.8055796 148,55.5 L148,127 L131,127 L131,55.5 C131,50.8055796 134.80558,47 139.5,47 Z" id="Rectangle-Copy-6" fill="url(#linearGradient-6)"></path>
                        <path d="M111.228181,-0.492680947 C113.054824,-0.375132355 114.5,1.14366435 114.5,3 C114.5,3.75373521 114.261743,4.45182256 113.856434,5.02305716 C116.058922,6.55900997 117.5,9.11121405 117.5,12 C117.5,16.6944204 113.69442,20.5 109,20.5 C104.30558,20.5 100.5,16.6944204 100.5,12 C100.5,10.1305108 101.103535,8.40198489 102.126393,6.9986353 C101.731535,6.43197696 101.5,5.74302748 101.5,5 C101.5,3.2174621 102.832555,1.74615919 104.555842,1.52791518 C104.51926,1.35773265 104.5,1.18111548 104.5,1 C104.5,-0.380711875 105.619288,-1.5 107,-1.5 C107.171451,-1.5 107.33887,-1.48274107 107.500616,-1.4498658 C107.500206,-1.46652745 107.5,-1.48323965 107.5,-1.5 C107.5,-2.6045695 108.395431,-3.5 109.5,-3.5 C110.604569,-3.5 111.5,-2.6045695 111.5,-1.5 C111.5,-1.13268764 111.400981,-0.788502323 111.228181,-0.492680947 Z" id="Combined-Shape-Copy" fill="#FFD63F" transform="translate(109.000000, 8.500000) rotate(-90.000000) translate(-109.000000, -8.500000) "></path>
                        <circle id="Oval-10-Copy" fill="#071E37" cx="121" cy="212" r="2"></circle>
                        <circle id="Oval-10-Copy-3" fill="#071E37" cx="101" cy="212" r="2"></circle>
                        <rect id="Rectangle-26" fill="#3E2722" transform="translate(23.000000, 70.500000) rotate(-30.000000) translate(-23.000000, -70.500000) " x="20" y="30" width="6" height="81" rx="3"></rect>
                    </g>
                </g>
                <rect id="Rectangle-27" fill="#0A2440" mask="url(#mask-2)" x="223" y="332" width="12" height="110"></rect>
                <rect id="Rectangle-27-Copy" fill="#0A2440" mask="url(#mask-2)" x="43" y="332" width="12" height="110"></rect>
            </g>
            <mask id="mask-10" fill="white">
                <use xlink:href="#path-9"></use>
            </mask>
            <use id="Oval-8" stroke="#FFFFFF" stroke-width="8" stroke-linecap="round" stroke-linejoin="round" xlink:href="#path-9"></use>
        </g>
    </g>
</svg>