<?xml version="1.0" encoding="UTF-8"?>
<svg width="410px" height="410px" viewBox="0 0 410 410" version="1.1" xmlns="http://www.w3.org/2000/svg" xmlns:xlink="http://www.w3.org/1999/xlink">
    <!-- Generator: Sketch 48.2 (47327) - http://www.bohemiancoding.com/sketch -->
    <title>Approach/ill_3</title>
    <desc>Created with Sketch.</desc>
    <defs>
        <circle id="path-1" cx="201" cy="201" r="201"></circle>
        <circle id="path-3" cx="201" cy="201" r="201"></circle>
    </defs>
    <g id="Approach/ill_3" stroke="none" stroke-width="1" fill="none" fill-rule="evenodd" transform="translate(-67.000000, -12.000000)">
        <g transform="translate(71.000000, 16.000000)">
            <g id="Group">
                <g>
                    <mask id="mask-2" fill="white">
                        <use xlink:href="#path-1"></use>
                    </mask>
                    <use id="Oval-8-Copy" fill="#0A2440" xlink:href="#path-1"></use>
                    <g id="Group-3" mask="url(#mask-2)">
                        <g transform="translate(-165.000000, 113.000000)">
                            <g id="Group-2" stroke="none" stroke-width="1" fill="none" fill-rule="evenodd" transform="translate(434.879990, 0.000000)">
                                <path d="M90.0480041,176.064008 L222.76801,176.064008 C271.386744,176.064008 310.800014,136.650737 310.800014,88.032004 C310.800014,39.4132707 271.386744,0 222.76801,0 C210.520543,0 200.592009,9.92853384 200.592009,22.176001 C200.592009,34.4234682 210.520543,44.352002 222.76801,44.352002 C246.891809,44.352002 266.448012,63.9082051 266.448012,88.032004 C266.448012,112.155803 246.891809,131.712006 222.76801,131.712006 L90.0480041,131.712006 C77.8005369,131.712006 67.8720031,141.64054 67.8720031,153.888007 C67.8720031,166.135474 77.8005369,176.064008 90.0480041,176.064008 Z" id="Oval-8-Copy" fill="#FFD63F" fill-rule="nonzero" transform="translate(189.336009, 88.032004) scale(-1, 1) translate(-189.336009, -88.032004) "></path>
                                <path d="M90.0480041,176.064008 C138.666737,176.064008 178.080008,136.650737 178.080008,88.032004 C178.080008,39.4132707 138.666737,0 90.0480041,0 C77.8005369,0 67.8720031,9.92853384 67.8720031,22.176001 C67.8720031,34.4234682 77.8005369,44.352002 90.0480041,44.352002 C114.171803,44.352002 133.728006,63.9082051 133.728006,88.032004 C133.728006,112.155803 114.171803,131.712006 90.0480041,131.712006 L90.0480041,176.064008 Z" id="Oval-8-Copy" fill="#FFD63F" fill-rule="nonzero" transform="translate(122.976006, 88.032004) scale(-1, 1) translate(-122.976006, -88.032004) "></path>
                                <path d="M178.080008,88.032004 C178.080008,39.4132707 138.666737,0 90.0480041,0 C77.8005369,0 67.8720031,9.92853384 67.8720031,22.176001 C67.8720031,34.4234682 77.8005369,44.352002 90.0480041,44.352002 C114.171803,44.352002 133.728006,63.9082051 133.728006,88.032004 L153.552007,109.536005 L178.080008,88.032004 Z" id="Oval-8-Copy" fill="#F2400A" fill-rule="nonzero" transform="translate(122.976006, 54.768003) scale(-1, 1) translate(-122.976006, -54.768003) "></path>
                                <path d="M168.71416,6.38208696 C158.531063,2.26619094 147.402183,0 135.744006,0 C123.496539,0 113.568005,9.92853384 113.568005,22.176001 C113.568005,34.4234682 123.496539,44.352002 135.744006,44.352002 C141.528236,44.352002 147.04987,45.4763072 152.102294,47.5183031 L178.080008,36.6240017 L168.71416,6.38208696 Z" id="Oval-8-Copy" fill="#6932F4" fill-rule="nonzero" transform="translate(145.824007, 23.759152) scale(-1, 1) translate(-145.824007, -23.759152) "></path>
                                <path d="M22.176001,176.064008 L154.896007,176.064008 C203.51474,176.064008 242.928011,136.650737 242.928011,88.032004 C242.928011,39.4132707 203.51474,0 154.896007,0 L134.736006,22.176001 L154.896007,44.352002 C179.019806,44.352002 198.576009,63.9082051 198.576009,88.032004 C198.576009,112.155803 179.019806,131.712006 154.896007,131.712006 L22.176001,131.712006 C9.92853384,131.712006 -1.43245422e-14,141.64054 0,153.888007 C1.43245422e-14,166.135474 9.92853384,176.064008 22.176001,176.064008 Z" id="Oval-8-Copy" fill="#6932F4" fill-rule="nonzero"></path>
                                <path d="M22.176001,176.064008 L154.896007,176.064008 C203.51474,176.064008 242.928011,136.650737 242.928011,88.032004 C242.928011,65.2952948 234.308346,44.5718163 220.158535,28.9510894 L190.176009,31.2480014 L188.389695,59.9926375 C194.747862,67.5795627 198.576009,77.3587275 198.576009,88.032004 C198.576009,112.155803 179.019806,131.712006 154.896007,131.712006 L22.176001,131.712006 C9.92853384,131.712006 -1.43245422e-14,141.64054 0,153.888007 C1.43245422e-14,166.135474 9.92853384,176.064008 22.176001,176.064008 Z" id="Oval-8-Copy" fill="#02AD8A" fill-rule="nonzero"></path>
                                <path d="M22.176001,176.064008 L154.896007,176.064008 C194.956825,176.064008 228.767672,149.304704 239.429288,112.685357 L223.44001,88.032004 L197.188825,98.9949337 C192.324964,117.81263 175.233672,131.712006 154.896007,131.712006 L22.176001,131.712006 C9.92853384,131.712006 -1.43245422e-14,141.64054 0,153.888007 C1.43245422e-14,166.135474 9.92853384,176.064008 22.176001,176.064008 Z" id="Oval-8-Copy" fill="#2877FF" fill-rule="nonzero"></path>
                                <path d="M22.176001,176.064008 L154.896007,176.064008 L179.088008,152.544007 L154.896007,131.712006 L22.176001,131.712006 C9.92853384,131.712006 -1.43245422e-14,141.64054 0,153.888007 C1.43245422e-14,166.135474 9.92853384,176.064008 22.176001,176.064008 Z" id="Oval-8-Copy" fill="#2E1FA6" fill-rule="nonzero"></path>
                                <path d="M22.176001,176.064008 L78.9600036,176.064008 L99.1200045,153.888007 L78.9600036,131.712006 L22.176001,131.712006 C9.92853384,131.712006 -1.43245422e-14,141.64054 0,153.888007 C1.43245422e-14,166.135474 9.92853384,176.064008 22.176001,176.064008 Z" id="Oval-8-Copy" fill="#FFD63F" fill-rule="nonzero"></path>
                            </g>
                            <path d="M670.896824,129.877927 C677.126094,117.698338 680.639985,103.899525 680.639985,89.279998 C680.639985,39.9720166 640.667968,0 591.359987,0 C542.052005,0 502.079989,39.9720166 502.079989,89.279998 C502.079989,101.385041 504.489086,112.92741 508.853986,123.453809" id="Oval-22-Copy" stroke="#0A2440" stroke-width="1.91999996" fill="none"></path>
                            <g id="Group-2" stroke="none" stroke-width="1" fill="none" fill-rule="evenodd" transform="translate(212.159995, 0.000000)">
                                <path d="M90.0480041,176.064008 L193.968011,176.064008 C242.586744,176.064008 282.000015,136.650737 282.000015,88.032004 C282.000015,39.4132707 242.586744,0 193.968011,0 C181.720544,0 171.79201,9.92853384 171.79201,22.176001 C171.79201,34.4234682 181.720544,44.352002 193.968011,44.352002 C218.09181,44.352002 237.648013,63.9082051 237.648013,88.032004 C237.648013,112.155803 218.09181,131.712006 193.968011,131.712006 L90.0480041,131.712006 C77.8005369,131.712006 67.8720031,141.64054 67.8720031,153.888007 C67.8720031,166.135474 77.8005369,176.064008 90.0480041,176.064008 Z" id="Oval-8-Copy" fill="#FFD63F" fill-rule="nonzero" transform="translate(174.936009, 88.032004) scale(-1, 1) translate(-174.936009, -88.032004) "></path>
                                <path d="M90.0480041,176.064008 C138.666737,176.064008 178.080008,136.650737 178.080008,88.032004 C178.080008,39.4132707 138.666737,0 90.0480041,0 C77.8005369,0 67.8720031,9.92853384 67.8720031,22.176001 C67.8720031,34.4234682 77.8005369,44.352002 90.0480041,44.352002 C114.171803,44.352002 133.728006,63.9082051 133.728006,88.032004 C133.728006,112.155803 114.171803,131.712006 90.0480041,131.712006 L90.0480041,176.064008 Z" id="Oval-8-Copy" fill="#FFD63F" fill-rule="nonzero" transform="translate(122.976006, 88.032004) scale(-1, 1) translate(-122.976006, -88.032004) "></path>
                                <path d="M178.080008,88.032004 C178.080008,39.4132707 138.666737,0 90.0480041,0 C77.8005369,0 67.8720031,9.92853384 67.8720031,22.176001 C67.8720031,34.4234682 77.8005369,44.352002 90.0480041,44.352002 C114.171803,44.352002 133.728006,63.9082051 133.728006,88.032004 L153.552007,109.536005 L178.080008,88.032004 Z" id="Oval-8-Copy" fill="#F2400A" fill-rule="nonzero" transform="translate(122.976006, 54.768003) scale(-1, 1) translate(-122.976006, -54.768003) "></path>
                                <path d="M168.71416,6.38208696 C158.531063,2.26619094 147.402183,0 135.744006,0 C123.496539,0 113.568005,9.92853384 113.568005,22.176001 C113.568005,34.4234682 123.496539,44.352002 135.744006,44.352002 C141.528236,44.352002 147.04987,45.4763072 152.102294,47.5183031 L178.080008,36.6240017 L168.71416,6.38208696 Z" id="Oval-8-Copy" fill="#6932F4" fill-rule="nonzero" transform="translate(145.824007, 23.759152) scale(-1, 1) translate(-145.824007, -23.759152) "></path>
                                <path d="M22.176001,176.064008 L154.896007,176.064008 C203.51474,176.064008 242.928011,136.650737 242.928011,88.032004 C242.928011,39.4132707 203.51474,0 154.896007,0 L134.736006,22.176001 L154.896007,44.352002 C179.019806,44.352002 198.576009,63.9082051 198.576009,88.032004 C198.576009,112.155803 179.019806,131.712006 154.896007,131.712006 L22.176001,131.712006 C9.92853384,131.712006 -1.43245422e-14,141.64054 0,153.888007 C1.43245422e-14,166.135474 9.92853384,176.064008 22.176001,176.064008 Z" id="Oval-8-Copy" fill="#6932F4" fill-rule="nonzero"></path>
                                <path d="M22.176001,176.064008 L154.896007,176.064008 C203.51474,176.064008 242.928011,136.650737 242.928011,88.032004 C242.928011,65.2952948 234.308346,44.5718163 220.158535,28.9510894 L190.176009,31.2480014 L188.389695,59.9926375 C194.747862,67.5795627 198.576009,77.3587275 198.576009,88.032004 C198.576009,112.155803 179.019806,131.712006 154.896007,131.712006 L22.176001,131.712006 C9.92853384,131.712006 -1.43245422e-14,141.64054 0,153.888007 C1.43245422e-14,166.135474 9.92853384,176.064008 22.176001,176.064008 Z" id="Oval-8-Copy" fill="#02AD8A" fill-rule="nonzero"></path>
                                <path d="M22.176001,176.064008 L154.896007,176.064008 C194.956825,176.064008 228.767672,149.304704 239.429288,112.685357 L223.44001,88.032004 L197.188825,98.9949337 C192.324964,117.81263 175.233672,131.712006 154.896007,131.712006 L22.176001,131.712006 C9.92853384,131.712006 -1.43245422e-14,141.64054 0,153.888007 C1.43245422e-14,166.135474 9.92853384,176.064008 22.176001,176.064008 Z" id="Oval-8-Copy" fill="#2877FF" fill-rule="nonzero"></path>
                                <path d="M78.9600036,131.712006 L154.896007,131.712006 L179.088008,152.544007 L154.896007,176.064008 L78.9600036,176.064008 L99.1200045,153.888007 L78.9600036,131.712006 Z" id="Combined-Shape" fill="#2E1FA6" fill-rule="nonzero"></path>
                                <path d="M22.176001,176.064008 L78.9600036,176.064008 L99.1200045,153.888007 L78.9600036,131.712006 L22.176001,131.712006 C9.92853384,131.712006 -1.43245422e-14,141.64054 0,153.888007 C1.43245422e-14,166.135474 9.92853384,176.064008 22.176001,176.064008 Z" id="Oval-8-Copy" fill="#FFD63F" fill-rule="nonzero"></path>
                            </g>
                            <g id="Group-2-Copy" stroke="none" stroke-width="1" fill="none" fill-rule="evenodd">
                                <path d="M80.4480043,176.064008 L174.768011,176.064008 C223.386745,176.064008 262.800015,136.650737 262.800015,88.032004 C262.800015,39.4132707 223.386745,0 174.768011,0 C162.520544,0 152.59201,9.92853384 152.59201,22.176001 C152.59201,34.4234682 162.520544,44.352002 174.768011,44.352002 C198.89181,44.352002 218.448013,63.9082051 218.448013,88.032004 C218.448013,112.155803 198.89181,131.712006 174.768011,131.712006 L80.4480043,131.712006 C68.2005372,131.712006 58.2720033,141.64054 58.2720033,153.888007 C58.2720033,166.135474 68.2005372,176.064008 80.4480043,176.064008 Z" id="Oval-8-Copy" fill="#FFD63F" fill-rule="nonzero" transform="translate(160.536009, 88.032004) scale(-1, 1) translate(-160.536009, -88.032004) "></path>
                                <path d="M90.0480041,176.064008 C138.666737,176.064008 178.080008,136.650737 178.080008,88.032004 C178.080008,39.4132707 138.666737,0 90.0480041,0 C77.8005369,0 67.8720031,9.92853384 67.8720031,22.176001 C67.8720031,34.4234682 77.8005369,44.352002 90.0480041,44.352002 C114.171803,44.352002 133.728006,63.9082051 133.728006,88.032004 C133.728006,112.155803 114.171803,131.712006 90.0480041,131.712006 L90.0480041,176.064008 Z" id="Oval-8-Copy" fill="#FFD63F" fill-rule="nonzero" transform="translate(122.976006, 88.032004) scale(-1, 1) translate(-122.976006, -88.032004) "></path>
                                <path d="M178.080008,88.032004 C178.080008,39.4132707 138.666737,0 90.0480041,0 C77.8005369,0 67.8720031,9.92853384 67.8720031,22.176001 C67.8720031,34.4234682 77.8005369,44.352002 90.0480041,44.352002 C114.171803,44.352002 133.728006,63.9082051 133.728006,88.032004 L153.552007,109.536005 L178.080008,88.032004 Z" id="Oval-8-Copy" fill="#F2400A" fill-rule="nonzero" transform="translate(122.976006, 54.768003) scale(-1, 1) translate(-122.976006, -54.768003) "></path>
                                <path d="M168.71416,6.38208696 C158.531063,2.26619094 147.402183,0 135.744006,0 C123.496539,0 113.568005,9.92853384 113.568005,22.176001 C113.568005,34.4234682 123.496539,44.352002 135.744006,44.352002 C141.528236,44.352002 147.04987,45.4763072 152.102294,47.5183031 L178.080008,36.6240017 L168.71416,6.38208696 Z" id="Oval-8-Copy" fill="#6932F4" fill-rule="nonzero" transform="translate(145.824007, 23.759152) scale(-1, 1) translate(-145.824007, -23.759152) "></path>
                                <path d="M22.176001,176.064008 L154.896007,176.064008 C203.51474,176.064008 242.928011,136.650737 242.928011,88.032004 C242.928011,39.4132707 203.51474,0 154.896007,0 L134.736006,22.176001 L154.896007,44.352002 C179.019806,44.352002 198.576009,63.9082051 198.576009,88.032004 C198.576009,112.155803 179.019806,131.712006 154.896007,131.712006 L22.176001,131.712006 C9.92853384,131.712006 -1.43245422e-14,141.64054 0,153.888007 C1.43245422e-14,166.135474 9.92853384,176.064008 22.176001,176.064008 Z" id="Oval-8-Copy" fill="#6932F4" fill-rule="nonzero"></path>
                                <path d="M22.176001,176.064008 L154.896007,176.064008 C203.51474,176.064008 242.928011,136.650737 242.928011,88.032004 C242.928011,65.2952948 234.308346,44.5718163 220.158535,28.9510894 L190.176009,31.2480014 L188.389695,59.9926375 C194.747862,67.5795627 198.576009,77.3587275 198.576009,88.032004 C198.576009,112.155803 179.019806,131.712006 154.896007,131.712006 L22.176001,131.712006 C9.92853384,131.712006 -1.43245422e-14,141.64054 0,153.888007 C1.43245422e-14,166.135474 9.92853384,176.064008 22.176001,176.064008 Z" id="Oval-8-Copy" fill="#02AD8A" fill-rule="nonzero"></path>
                                <path d="M22.176001,176.064008 L154.896007,176.064008 C194.956825,176.064008 228.767672,149.304704 239.429288,112.685357 L223.44001,88.032004 L197.188825,98.9949337 C192.324964,117.81263 175.233672,131.712006 154.896007,131.712006 L22.176001,131.712006 C9.92853384,131.712006 -1.43245422e-14,141.64054 0,153.888007 C1.43245422e-14,166.135474 9.92853384,176.064008 22.176001,176.064008 Z" id="Oval-8-Copy" fill="#2877FF" fill-rule="nonzero"></path>
                                <path d="M22.176001,176.064008 L154.896007,176.064008 L179.088008,152.544007 L154.896007,131.712006 L22.176001,131.712006 C9.92853384,131.712006 -1.43245422e-14,141.64054 0,153.888007 C1.43245422e-14,166.135474 9.92853384,176.064008 22.176001,176.064008 Z" id="Oval-8-Copy" fill="#2E1FA6" fill-rule="nonzero"></path>
                            </g>
                            <path d="M234.096834,129.877927 C240.326104,117.698338 243.839995,103.899525 243.839995,89.279998 C243.839995,39.9720166 203.867978,0 154.559997,0 C105.252015,0 65.2799985,39.9720166 65.2799985,89.279998 C65.2799985,101.385041 67.6890956,112.92741 72.0539956,123.453809" id="Oval-22-Copy" stroke="#0A2440" stroke-width="1.91999996" fill="none"></path>
                            <text id="launch" stroke="none" fill="none" font-family="Circe-Bold, Circe" font-size="13.4399997" font-weight="bold" line-spacing="21.504001">
                                <tspan x="232.895998" y="158.192007" fill="#0A2440">launch</tspan>
                            </text>
                            <text id="launch-copy" stroke="none" fill="none" font-family="Circe-Bold, Circe" font-size="13.4399997" font-weight="bold" line-spacing="21.504001">
                                <tspan x="453.600006" y="158.192007" fill="#0A2440">launch</tspan>
                            </text>
                            <text id="Plan" stroke="none" fill="none" font-family="Circe-Bold, Circe" font-size="13.4399997" font-weight="bold" line-spacing="21.504001">
                                <tspan x="329.088001" y="157.520007" fill="#FFFFFF">Plan</tspan>
                            </text>
                            <text id="Design-Copy" stroke="none" fill="none" transform="translate(416.787509, 128.791016) rotate(-52.000000) translate(-416.787509, -128.791016) " font-family="Circe-Bold, Circe" font-size="13.4399997" font-weight="bold" line-spacing="21.504001">
                                <tspan x="396.287509" y="131.791016" fill="#FFFFFF">Design</tspan>
                            </text>
                            <text id="Build" stroke="none" fill="none" transform="translate(429.035873, 60.945276) rotate(-297.000000) translate(-429.035873, -60.945276) " font-family="Circe-Bold, Circe" font-size="13.4399997" font-weight="bold" line-spacing="21.504001">
                                <tspan x="413.535873" y="63.9452764" fill="#FFFFFF">Build</tspan>
                            </text>
                            <text id="Test" stroke="none" fill="none" font-family="Circe-Bold, Circe" font-size="13.4399997" font-weight="bold" line-spacing="21.504001">
                                <tspan x="357.984002" y="26.4800006" fill="#FFFFFF">Test</tspan>
                            </text>
                            <text id="Review" stroke="none" fill="none" transform="translate(310.535999, 63.512003) rotate(-66.000000) translate(-310.535999, -63.512003) " font-family="Circe-Bold, Circe" font-size="13.4399997" font-weight="bold" line-spacing="21.504001">
                                <tspan x="289.535999" y="66.5120025" fill="#FFFFFF">Review</tspan>
                            </text>
                            <path d="M447.216829,129.877927 C453.446099,117.698338 456.95999,103.899525 456.95999,89.279998 C456.95999,39.9720166 416.987973,0 367.679992,0 C318.37201,0 278.399994,39.9720166 278.399994,89.279998 C278.399994,101.385041 280.809091,112.92741 285.173991,123.453809" id="Oval-22" stroke="#0A2440" stroke-width="1.91999996" fill="none"></path>
                            <circle id="Oval-22" stroke="none" fill="#0A2440" fill-rule="evenodd" cx="367.199992" cy="87.839998" r="43.679999"></circle>
                            <text id="Sprint" stroke="none" fill="none" font-family="Circe-Bold, Circe" font-size="17.2799996" font-weight="bold" line-spacing="21.504001">
                                <tspan x="343.872001" y="94.6080035" fill="#FFFFFF">Sprint</tspan>
                            </text>
                        </g>
                    </g>
                </g>
            </g>
            <mask id="mask-4" fill="white">
                <use xlink:href="#path-3"></use>
            </mask>
            <use id="Oval-8-Copy" stroke="#FFFFFF" stroke-width="8" stroke-linecap="round" stroke-linejoin="round" xlink:href="#path-3"></use>
        </g>
    </g>
</svg>