<?xml version="1.0" encoding="UTF-8"?>
<svg width="410px" height="410px" viewBox="0 0 410 410" version="1.1" xmlns="http://www.w3.org/2000/svg" xmlns:xlink="http://www.w3.org/1999/xlink">
    <!-- Generator: Sketch 48.2 (47327) - http://www.bohemiancoding.com/sketch -->
    <title>Approach/ill_1</title>
    <desc>Created with Sketch.</desc>
    <defs>
        <circle id="path-1" cx="201" cy="201" r="201"></circle>
        <path d="M4.79999971,0 L296.2,0 C298.850967,-4.86974672e-16 301,2.14903307 301,4.79999971 L301,267.2 C301,269.850967 298.850967,272 296.2,272 L4.79999971,272 C2.14903307,272 3.24649781e-16,269.850967 0,267.2 L0,4.79999971 C-3.24649781e-16,2.14903307 2.14903307,4.86974672e-16 4.79999971,0 Z" id="path-3"></path>
        <circle id="path-4" cx="64" cy="64" r="55"></circle>
        <circle id="path-5" cx="201" cy="201" r="201"></circle>
    </defs>
    <g id="Approach/ill_1" stroke="none" stroke-width="1" fill="none" fill-rule="evenodd" transform="translate(-67.000000, -12.000000)">
        <g transform="translate(71.000000, 16.000000)">
            <g>
                <mask id="mask-2" fill="white">
                    <use xlink:href="#path-1"></use>
                </mask>
                <use id="Oval-8" fill="#3E2722" xlink:href="#path-1"></use>
                <g id="Group-6" mask="url(#mask-2)">
                    <g transform="translate(265.571227, 184.318179) rotate(-345.000000) translate(-265.571227, -184.318179) translate(115.071227, 48.318179)">
                        <g id="Rectangle" stroke="none" fill="none">
                            <use fill="#0A2440" fill-rule="evenodd" xlink:href="#path-3"></use>
                            <path stroke="#FFFFFF" stroke-width="2" d="M4.79999971,1 C2.70131782,1 1,2.70131782 1,4.79999971 L1,267.2 C1,269.298682 2.70131782,271 4.79999971,271 L296.2,271 C298.298682,271 300,269.298682 300,267.2 L300,4.79999971 C300,2.70131782 298.298682,1 296.2,1 L4.79999971,1 Z"></path>
                        </g>
                        <circle id="Oval-13" stroke="none" fill="#F2400A" fill-rule="evenodd" cx="34" cy="49" r="12"></circle>
                        <path d="M158,52 L198,52 C198.552285,52 199,52.4477153 199,53 L199,53 C199,53.5522847 198.552285,54 198,54 L158,54 C157.447715,54 157,53.5522847 157,53 L157,53 C157,52.4477153 157.447715,52 158,52 Z" id="Rectangle-26-Copy-12" stroke="none" fill="#FFFFFF" fill-rule="evenodd"></path>
                        <path d="M227,52 L267,52 C267.552285,52 268,52.4477153 268,53 L268,53 C268,53.5522847 267.552285,54 267,54 L227,54 C226.447715,54 226,53.5522847 226,53 L226,53 C226,52.4477153 226.447715,52 227,52 Z" id="Rectangle-26-Copy-18" stroke="none" fill="#FFFFFF" fill-rule="evenodd"></path>
                        <rect id="Rectangle-26-Copy-13" stroke="none" fill="#FFFFFF" fill-rule="evenodd" x="157" y="46" width="12" height="2" rx="1"></rect>
                        <rect id="Rectangle-26-Copy-19" stroke="none" fill="#FFFFFF" fill-rule="evenodd" x="226" y="46" width="12" height="2" rx="1"></rect>
                        <path d="M158,59 L198,59 C198.552285,59 199,59.4477153 199,60 L199,60 C199,60.5522847 198.552285,61 198,61 L158,61 C157.447715,61 157,60.5522847 157,60 L157,60 C157,59.4477153 157.447715,59 158,59 Z" id="Rectangle-26-Copy-14" stroke="none" fill="#FFFFFF" fill-rule="evenodd"></path>
                        <path d="M227,59 L267,59 C267.552285,59 268,59.4477153 268,60 L268,60 C268,60.5522847 267.552285,61 267,61 L227,61 C226.447715,61 226,60.5522847 226,60 L226,60 C226,59.4477153 226.447715,59 227,59 Z" id="Rectangle-26-Copy-20" stroke="none" fill="#FFFFFF" fill-rule="evenodd"></path>
                        <g id="Group-2" stroke="none" stroke-width="1" fill="none" fill-rule="evenodd" transform="translate(58.000000, 95.000000)">
                            <circle id="Oval-13" fill="#F2400A" cx="12.5" cy="14.5" r="5.5"></circle>
                            <path d="M1,83 L58,83 L58,53.7999997 C58,51.7013178 56.2986822,50 54.2000003,50 L4.79999971,50 C2.70131782,50 1,51.7013178 1,53.7999997 L1,83 Z" id="Rectangle" stroke="#FFFFFF" stroke-width="2" transform="translate(29.500000, 66.500000) rotate(-180.000000) translate(-29.500000, -66.500000) "></path>
                            <path d="M4.79999971,1 C2.70131782,1 1,2.70131782 1,4.79999971 L1,79.2000003 C1,81.2986822 2.70131782,83 4.79999971,83 L54.2000003,83 C56.2986822,83 58,81.2986822 58,79.2000003 L58,4.79999971 C58,2.70131782 56.2986822,1 54.2000003,1 L4.79999971,1 Z" id="Rectangle" stroke="#FFFFFF" stroke-width="2"></path>
                            <path d="M10,33 L50,33 C50.5522847,33 51,33.4477153 51,34 L51,34 C51,34.5522847 50.5522847,35 50,35 L10,35 C9.44771525,35 9,34.5522847 9,34 L9,34 C9,33.4477153 9.44771525,33 10,33 Z" id="Rectangle-26-Copy-12" fill="#FFFFFF"></path>
                            <path d="M10,63 L25,63 C25.5522847,63 26,63.4477153 26,64 L26,64 C26,64.5522847 25.5522847,65 25,65 L10,65 C9.44771525,65 9,64.5522847 9,64 L9,64 C9,63.4477153 9.44771525,63 10,63 Z" id="Rectangle-26-Copy-15" fill="#FFFFFF"></path>
                            <rect id="Rectangle-26-Copy-13" fill="#FFFFFF" x="9" y="27" width="12" height="2" rx="1"></rect>
                            <rect id="Rectangle-26-Copy-16" fill="#FFFFFF" x="9" y="57" width="12" height="2" rx="1"></rect>
                            <path d="M10,40 L50,40 C50.5522847,40 51,40.4477153 51,41 L51,41 C51,41.5522847 50.5522847,42 50,42 L10,42 C9.44771525,42 9,41.5522847 9,41 L9,41 C9,40.4477153 9.44771525,40 10,40 Z" id="Rectangle-26-Copy-14" fill="#FFFFFF"></path>
                            <path d="M10,70 L25,70 C25.5522847,70 26,70.4477153 26,71 L26,71 C26,71.5522847 25.5522847,72 25,72 L10,72 C9.44771525,72 9,71.5522847 9,71 L9,71 C9,70.4477153 9.44771525,70 10,70 Z" id="Rectangle-26-Copy-17" fill="#FFFFFF"></path>
                        </g>
                        <g id="Group-3" stroke="none" stroke-width="1" fill="none" fill-rule="evenodd" transform="translate(137.000000, 142.000000)">
                            <path d="M4.79999971,0 L54.2000003,0 C56.8509669,-4.86974672e-16 59,2.14903307 59,4.79999971 L59,79.2000003 C59,81.8509669 56.8509669,84 54.2000003,84 L4.79999971,84 C2.14903307,84 3.24649781e-16,81.8509669 0,79.2000003 L0,4.79999971 C-3.24649781e-16,2.14903307 2.14903307,4.86974672e-16 4.79999971,0 Z" id="Rectangle-Copy" stroke="#FFFFFF" stroke-width="2" stroke-linecap="round" stroke-linejoin="round"></path>
                            <rect id="Rectangle-Copy" stroke="#FFFFFF" stroke-width="2" stroke-linecap="round" stroke-linejoin="round" x="9" y="9" width="41" height="18" rx="3.59999979"></rect>
                            <path d="M38,47 L53,47 C53.5522847,47 54,47.4477153 54,48 L54,48 C54,48.5522847 53.5522847,49 53,49 L38,49 C37.4477153,49 37,48.5522847 37,48 L37,48 C37,47.4477153 37.4477153,47 38,47 Z" id="Rectangle-26-Copy" fill="#FFFFFF"></path>
                            <rect id="Rectangle-26-Copy-11" fill="#FFFFFF" x="37" y="41" width="12" height="2" rx="1"></rect>
                            <path d="M38,68 L53,68 C53.5522847,68 54,68.4477153 54,69 L54,69 C54,69.5522847 53.5522847,70 53,70 L38,70 C37.4477153,70 37,69.5522847 37,69 L37,69 C37,68.4477153 37.4477153,68 38,68 Z" id="Rectangle-26-Copy-9" fill="#FFFFFF"></path>
                            <path d="M38,54 L53,54 C53.5522847,54 54,54.4477153 54,55 L54,55 C54,55.5522847 53.5522847,56 53,56 L38,56 C37.4477153,56 37,55.5522847 37,55 L37,55 C37,54.4477153 37.4477153,54 38,54 Z" id="Rectangle-26-Copy-2" fill="#FFFFFF"></path>
                            <path d="M38,75 L53,75 C53.5522847,75 54,75.4477153 54,76 L54,76 C54,76.5522847 53.5522847,77 53,77 L38,77 C37.4477153,77 37,76.5522847 37,76 L37,76 C37,75.4477153 37.4477153,75 38,75 Z" id="Rectangle-26-Copy-10" fill="#FFFFFF"></path>
                            <rect id="Rectangle-Copy-2" stroke="#FFFFFF" stroke-width="2" stroke-linecap="round" stroke-linejoin="round" x="9" y="37" width="20" height="18" rx="3.59999979"></rect>
                            <path d="M12.5999998,66 L25.4000002,66 C27.3882252,66 29,67.6117748 29,69.5999998 L29,84 L9,84 L9,69.5999998 C9,67.6117748 10.6117748,66 12.5999998,66 Z" id="Rectangle-Copy-3" stroke="#FFFFFF" stroke-width="2" stroke-linecap="round" stroke-linejoin="round"></path>
                        </g>
                        <g id="Group-3-Copy" stroke="none" stroke-width="1" fill="none" fill-rule="evenodd" transform="translate(218.000000, 100.000000)">
                            <path d="M4.79999971,0 L54.2000003,0 C56.8509669,-4.86974672e-16 59,2.14903307 59,4.79999971 L59,79.2000003 C59,81.8509669 56.8509669,84 54.2000003,84 L4.79999971,84 C2.14903307,84 3.24649781e-16,81.8509669 0,79.2000003 L0,4.79999971 C-3.24649781e-16,2.14903307 2.14903307,4.86974672e-16 4.79999971,0 Z" id="Rectangle-Copy" stroke="#FFFFFF" stroke-width="2" stroke-linecap="round" stroke-linejoin="round"></path>
                            <rect id="Rectangle-Copy" stroke="#FFFFFF" stroke-width="2" stroke-linecap="round" stroke-linejoin="round" x="9" y="9" width="41" height="40" rx="3.59999979"></rect>
                            <path d="M17,40 L32,40 C32.5522847,40 33,40.4477153 33,41 L33,41 C33,41.5522847 32.5522847,42 32,42 L17,42 C16.4477153,42 16,41.5522847 16,41 L16,41 C16,40.4477153 16.4477153,40 17,40 Z" id="Rectangle-26-Copy" fill="#FFFFFF"></path>
                            <rect id="Rectangle-26-Copy-11" fill="#FFFFFF" x="16" y="34" width="12" height="2" rx="1"></rect>
                            <path d="M38,68 L53,68 C53.5522847,68 54,68.4477153 54,69 L54,69 C54,69.5522847 53.5522847,70 53,70 L38,70 C37.4477153,70 37,69.5522847 37,69 L37,69 C37,68.4477153 37.4477153,68 38,68 Z" id="Rectangle-26-Copy-9" fill="#FFFFFF"></path>
                            <path d="M38,75 L53,75 C53.5522847,75 54,75.4477153 54,76 L54,76 C54,76.5522847 53.5522847,77 53,77 L38,77 C37.4477153,77 37,76.5522847 37,76 L37,76 C37,75.4477153 37.4477153,75 38,75 Z" id="Rectangle-26-Copy-10" fill="#FFFFFF"></path>
                            <path d="M12.5999998,57 L25.4000002,57 C27.3882252,57 29,58.6117748 29,60.5999998 L29,84 L9,84 L9,60.5999998 C9,58.6117748 10.6117748,57 12.5999998,57 Z" id="Rectangle-Copy-3" stroke="#FFFFFF" stroke-width="2" stroke-linecap="round" stroke-linejoin="round"></path>
                        </g>
                        <g id="Group-3-Copy-2" stroke="none" stroke-width="1" fill="none" fill-rule="evenodd" transform="translate(59.000000, 201.000000)">
                            <path d="M4.79999971,0 L54.2000003,0 C56.8509669,-4.86974672e-16 59,2.14903307 59,4.79999971 L59,70 L0,70 L0,4.79999971 C-3.24649781e-16,2.14903307 2.14903307,4.86974672e-16 4.79999971,0 Z" id="Rectangle-Copy" stroke="#FFFFFF" stroke-width="2" stroke-linecap="round" stroke-linejoin="round"></path>
                            <rect id="Rectangle-Copy" stroke="#FFFFFF" stroke-width="2" stroke-linecap="round" stroke-linejoin="round" x="9" y="27" width="41" height="22" rx="3.59999979"></rect>
                            <path d="M17,40 L32,40 C32.5522847,40 33,40.4477153 33,41 L33,41 C33,41.5522847 32.5522847,42 32,42 L17,42 C16.4477153,42 16,41.5522847 16,41 L16,41 C16,40.4477153 16.4477153,40 17,40 Z" id="Rectangle-26-Copy" fill="#FFFFFF"></path>
                            <rect id="Rectangle-26-Copy-11" fill="#FFFFFF" x="16" y="34" width="12" height="2" rx="1"></rect>
                            <path d="M12.5999998,57 L25.4000002,57 C27.3882252,57 29,58.6117748 29,60.5999998 L29,70 L9,70 L9,60.5999998 C9,58.6117748 10.6117748,57 12.5999998,57 Z" id="Rectangle-Copy-3" stroke="#FFFFFF" stroke-width="2" stroke-linecap="round" stroke-linejoin="round"></path>
                        </g>
                        <path d="M117,108 L163.2,108 C165.850967,108 168,110.149033 168,112.8 L168,142" id="Line" stroke="#FFFFFF" stroke-width="2" fill="none" stroke-linecap="round" stroke-linejoin="round"></path>
                        <path d="M-9.5,195.5 L-9.5,179.5 C-9.5,175.081722 -5.918278,171.5 -1.5,171.5 L93.5,171.5 C97.918278,171.5 101.5,175.081722 101.5,179.5 L101.5,195.5" id="Line-Copy" stroke="#FFFFFF" stroke-width="2" fill="none" stroke-linecap="round" stroke-linejoin="round" transform="translate(46.000000, 183.500000) rotate(-90.000000) translate(-46.000000, -183.500000) "></path>
                        <g id="Group-4" stroke="none" stroke-width="1" fill="none" fill-rule="evenodd" transform="translate(74.000000, 23.000000)">
                            <path d="M0.5,34.5 L27,34.5" id="Line-2" stroke="#FFFFFF" stroke-width="2" stroke-linecap="round" stroke-linejoin="round"></path>
                            <path d="M0.5,39.5 L20,39.5" id="Line-2-Copy" stroke="#FFFFFF" stroke-width="2" stroke-linecap="round" stroke-linejoin="round"></path>
                            <circle id="Oval-15" stroke="#FFFFFF" stroke-width="2" stroke-linecap="round" stroke-linejoin="round" cx="14" cy="7" r="7"></circle>
                            <path d="M14,27 C18.7864678,27 23.1198012,27 27,27 C27,19.8202983 21.1797017,14 14,14 C6.82029825,14 1,19.8202983 1,27 C4.88019884,27 9.21353217,27 14,27 Z" id="Oval-15-Copy" stroke="#FFFFFF" stroke-width="2" stroke-linecap="round" stroke-linejoin="round"></path>
                            <path d="M14,192 C18.7864678,192 23.1198012,192 27,192 C27,184.820298 21.1797017,179 14,179 C6.82029825,179 1,184.820298 1,192 C4.88019884,192 9.21353217,192 14,192 Z" id="Oval-15-Copy-2" fill="#F2400A" transform="translate(14.000000, 185.500000) rotate(-180.000000) translate(-14.000000, -185.500000) "></path>
                        </g>
                        <path d="M86.5,70 L86.5,94" id="Line-2-Copy" stroke="#FFFFFF" stroke-width="2" fill="none" stroke-linecap="round" stroke-linejoin="round" stroke-dasharray="2,6"></path>
                        <path d="M116.5,125.5 L217,125.5" id="Line-3" stroke="#FFFFFF" stroke-width="2" fill="none" stroke-linecap="round" stroke-linejoin="round"></path>
                        <path d="M118.5,239.5 L219,239.5" id="Line-3-Copy" stroke="#FFFFFF" stroke-width="2" fill="none" stroke-linecap="round" stroke-linejoin="round"></path>
                    </g>
                </g>
                <g id="Group" mask="url(#mask-2)">
                    <g transform="translate(334.000000, 275.000000) rotate(-15.000000) translate(-334.000000, -275.000000) translate(266.000000, 177.000000)">
                        <rect id="Rectangle" fill="#E2E5EB" x="0" y="0" width="136" height="196" rx="8"></rect>
                        <path d="M17,61 L119,61 C120.656854,61 122,62.3431458 122,64 L122,64 C122,65.6568542 120.656854,67 119,67 L17,67 C15.3431458,67 14,65.6568542 14,64 L14,64 C14,62.3431458 15.3431458,61 17,61 Z" id="Rectangle-26-Copy" fill="#0A2440"></path>
                        <path d="M102,26 L120,26 C121.656854,26 123,27.3431458 123,29 L123,29 C123,30.6568542 121.656854,32 120,32 L102,32 C100.343146,32 99,30.6568542 99,29 L99,29 C99,27.3431458 100.343146,26 102,26 Z" id="Rectangle-26-Copy-7" fill="#0A2440"></path>
                        <path d="M22,165 L40,165 C41.6568542,165 43,166.343146 43,168 L43,168 C43,169.656854 41.6568542,171 40,171 L22,171 C20.3431458,171 19,169.656854 19,168 L19,168 C19,166.343146 20.3431458,165 22,165 Z" id="Rectangle-26-Copy-8" fill="#0A2440"></path>
                        <path d="M17,76 L119,76 C120.656854,76 122,77.3431458 122,79 L122,79 C122,80.6568542 120.656854,82 119,82 L17,82 C15.3431458,82 14,80.6568542 14,79 L14,79 C14,77.3431458 15.3431458,76 17,76 Z" id="Rectangle-26-Copy-2" fill="#0A2440"></path>
                        <path d="M17,92 L119,92 C120.656854,92 122,93.3431458 122,95 L122,95 C122,96.6568542 120.656854,98 119,98 L17,98 C15.3431458,98 14,96.6568542 14,95 L14,95 C14,93.3431458 15.3431458,92 17,92 Z" id="Rectangle-26-Copy-3" fill="#0A2440"></path>
                        <path d="M17,106 L119,106 C120.656854,106 122,107.343146 122,109 L122,109 C122,110.656854 120.656854,112 119,112 L17,112 C15.3431458,112 14,110.656854 14,109 L14,109 C14,107.343146 15.3431458,106 17,106 Z" id="Rectangle-26-Copy-4" fill="#0A2440"></path>
                        <path d="M17,121 L119,121 C120.656854,121 122,122.343146 122,124 L122,124 C122,125.656854 120.656854,127 119,127 L17,127 C15.3431458,127 14,125.656854 14,124 L14,124 C14,122.343146 15.3431458,121 17,121 Z" id="Rectangle-26-Copy-5" fill="#0A2440"></path>
                        <path d="M17,136 L119,136 C120.656854,136 122,137.343146 122,139 L122,139 C122,140.656854 120.656854,142 119,142 L17,142 C15.3431458,142 14,140.656854 14,139 L14,139 C14,137.343146 15.3431458,136 17,136 Z" id="Rectangle-26-Copy-6" fill="#0A2440"></path>
                        <circle id="Oval-13" fill="#F2400A" cx="35.5" cy="29.5" r="14.5"></circle>
                    </g>
                </g>
                <g id="Group-5" mask="url(#mask-2)">
                    <g transform="translate(56.000000, 217.000000)">
                        <circle id="Oval-16" fill="#B8C0D0" fill-rule="evenodd" cx="64" cy="64" r="64"></circle>
                        <g id="Oval-16" fill="none">
                            <use fill="#282120" fill-rule="evenodd" xlink:href="#path-4"></use>
                            <circle stroke="#071E37" stroke-width="8" cx="64" cy="64" r="51"></circle>
                        </g>
                        <circle id="Oval-16" fill="#7B5F55" fill-rule="evenodd" cx="54" cy="52" r="11"></circle>
                        <circle id="Oval-16-Copy" fill="#7B5F55" fill-rule="evenodd" opacity="0.400000006" cx="85" cy="83" r="5"></circle>
                        <path d="M108.374369,105.381728 L118.374369,105.381728 C122.240362,105.381728 125.374369,108.515735 125.374369,112.381728 L125.374369,112.381728 C125.374369,116.247721 122.240362,119.381728 118.374369,119.381728 L108.374369,119.381728 C104.508375,119.381728 101.374369,116.247721 101.374369,112.381728 L101.374369,112.381728 C101.374369,108.515735 104.508375,105.381728 108.374369,105.381728 Z" id="Rectangle-26-Copy-8" fill="#B8C0D0" fill-rule="evenodd" transform="translate(113.374369, 112.381728) rotate(-315.000000) translate(-113.374369, -112.381728) "></path>
                    </g>
                </g>
                <g id="Group-7" mask="url(#mask-2)">
                    <g transform="translate(83.000000, 136.500000) rotate(-15.000000) translate(-83.000000, -136.500000) translate(48.000000, 76.000000)" id="Rectangle-28">
                        <rect fill="#B8C0D0" x="0" y="0" width="70" height="121" rx="20"></rect>
                        <rect fill="#E2E5EB" x="29" y="18" width="12" height="37" rx="6"></rect>
                    </g>
                </g>
                <circle id="Oval-17" fill="#FFD63F" opacity="0.200000003" mask="url(#mask-2)" cx="27.5" cy="10.5" r="251.5"></circle>
                <path d="M-68.8199899,377.50945 C-38.2247083,385.530266 -6.11110558,389.801084 27,389.801084 C235.101492,389.801084 403.801084,221.101492 403.801084,13 C403.801084,10.3660514 403.774058,7.7384151 403.720269,5.11735314 C539.790158,54.473787 637,184.884606 637,338 C637,533.508801 478.508801,692 283,692 C100.846666,692 -49.1737684,554.422703 -68.8199538,377.509459 Z" id="Combined-Shape" fill="#0A2440" opacity="0.200000003" mask="url(#mask-2)"></path>
            </g>
            <mask id="mask-6" fill="white">
                <use xlink:href="#path-5"></use>
            </mask>
            <use id="Oval-8-Copy" stroke="#FFFFFF" stroke-width="8" stroke-linecap="round" stroke-linejoin="round" xlink:href="#path-5"></use>
        </g>
    </g>
</svg>