<?xml version="1.0" encoding="UTF-8"?>
<svg width="410px" height="410px" viewBox="0 0 410 410" version="1.1" xmlns="http://www.w3.org/2000/svg" xmlns:xlink="http://www.w3.org/1999/xlink">
    <!-- Generator: Sketch 48.2 (47327) - http://www.bohemiancoding.com/sketch -->
    <title>Approach/ill_4</title>
    <desc>Created with Sketch.</desc>
    <defs>
        <circle id="path-1" cx="201" cy="201" r="201"></circle>
        <circle id="path-3" cx="201" cy="202" r="201"></circle>
    </defs>
    <g id="Approach/ill_4" stroke="none" stroke-width="1" fill="none" fill-rule="evenodd" transform="translate(-67.000000, -12.000000)">
        <g transform="translate(71.000000, 15.000000)">
            <g>
                <mask id="mask-2" fill="white">
                    <use xlink:href="#path-1"></use>
                </mask>
                <use id="Oval-8" fill="#5D27E5" xlink:href="#path-1"></use>
                <rect id="Rectangle-3" fill="#071E37" mask="url(#mask-2)" x="2" y="339" width="399" height="138"></rect>
                <g id="Group-2-Copy-4" mask="url(#mask-2)">
                    <g transform="translate(-24.000000, 128.000000)" id="Group-3">
                        <g>
                            <g id="Group-4-Copy-2">
                                <g id="Group" transform="translate(55.836257, 0.000000)">
                                    <rect id="Rectangle-Copy" fill="#0A2440" x="39.3391813" y="110.584337" width="7.61403509" height="50.8433735" rx="3.80701754"></rect>
                                    <rect id="Rectangle-Copy-2" fill="#0A2440" x="86.2923977" y="110.584337" width="7.61403509" height="50.8433735" rx="3.80701754"></rect>
                                    <rect id="Rectangle-Copy-4" fill="#0A2440" x="62.1812865" y="160.156627" width="10.1520468" height="50.8433735" rx="5.07602339"></rect>
                                    <rect id="Rectangle" fill="#00B993" x="-3.41060513e-13" y="16.5240964" width="85.6725146" height="119.481928" rx="8"></rect>
                                    <rect id="Rectangle-Copy-3" fill="#451FA3" x="11.4210526" y="146.174699" width="110.403509" height="24.1506024" rx="8"></rect>
                                    <g id="Group-6" transform="translate(-0.000000, 0.000000)">
                                        <rect id="Rectangle-Copy-3" fill="#0A2440" x="35.5321637" y="35.5903614" width="65.9883041" height="88.9759036"></rect>
                                        <rect id="Rectangle-15" fill="#FFB8A2" x="21.5730994" y="61.0120482" width="15.2280702" height="40.6746988" rx="7.61403509"></rect>
                                        <rect id="Rectangle-15-Copy" fill="#FFB8A2" x="101.520468" y="61.0120482" width="15.2280702" height="40.6746988" rx="7.61403509"></rect>
                                        <rect id="Rectangle-15-Copy" fill="#FFB8A2" transform="translate(124.362573, 95.331325) rotate(-270.000000) translate(-124.362573, -95.331325) " x="118.017544" y="74.9939759" width="12.6900585" height="40.6746988" rx="6.34502924"></rect>
                                        <path d="M28.3040936,35.5903614 L38.0701754,35.5903614 L38.0701754,72.4518072 L20.3040936,72.4518072 L20.3040936,43.5903614 C20.3040936,39.1720834 23.8858156,35.5903614 28.3040936,35.5903614 Z" id="Rectangle-Copy-9" fill="#0A2440"></path>
                                        <path d="M109.520468,35.5903614 L119.28655,35.5903614 L119.28655,72.4518072 L101.520468,72.4518072 L101.520468,43.5903614 C101.520468,39.1720834 105.10219,35.5903614 109.520468,35.5903614 Z" id="Rectangle-Copy-10" fill="#0A2440" transform="translate(110.403509, 54.021084) scale(-1, 1) translate(-110.403509, -54.021084) "></path>
                                        <g id="Group-6-Copy" transform="translate(99.318766, 142.065085) rotate(-270.000000) translate(-99.318766, -142.065085) translate(29.818766, 122.065085)">
                                            <rect id="Rectangle-Copy-3" fill="#2877FF" x="0" y="15.253012" width="110.403509" height="24.1506024" rx="8"></rect>
                                            <rect id="Rectangle-Copy-3" fill="#B8C0D0" x="106.596491" y="15.253012" width="8.88304094" height="24.1506024" rx="4.44152047"></rect>
                                            <rect id="Combined-Shape" fill="#3E2722" x="125.631579" y="0" width="12.6900585" height="39.4036145" rx="6.34502924"></rect>
                                            <polygon id="Rectangle-Copy-8" fill="#3E2722" transform="translate(120.555556, 26.057229) rotate(-360.000000) translate(-120.555556, -26.057229) " points="115.479532 20.3373494 125.631579 17.7951807 125.631579 34.3192771 115.479532 34.3192771"></polygon>
                                        </g>
                                        <g id="Group-6-Copy" transform="translate(0.000000, 120.753012)">
                                            <rect id="Rectangle-Copy-3" fill="#2877FF" x="0" y="5.08433735" width="110.403509" height="24.1506024" rx="8"></rect>
                                            <rect id="Rectangle-Copy-3" fill="#B8C0D0" x="106.596491" y="5.08433735" width="8.88304094" height="24.1506024" rx="4.44152047"></rect>
                                            <rect id="Combined-Shape" fill="#3E2722" x="125.631579" y="0" width="12.6900585" height="34.3192771" rx="6.34502924"></rect>
                                            <polygon id="Rectangle-Copy-8" fill="#3E2722" transform="translate(120.555556, 17.159639) rotate(-360.000000) translate(-120.555556, -17.159639) " points="115.479532 10.1686747 125.631579 7.62650602 125.631579 26.6927711 115.479532 24.1506024"></polygon>
                                        </g>
                                        <rect id="Rectangle-15" fill="#FFB8A2" transform="translate(44.415205, 95.331325) rotate(-270.000000) translate(-44.415205, -95.331325) " x="38.0701754" y="74.9939759" width="12.6900585" height="40.6746988" rx="6.34502924"></rect>
                                        <path d="M68.5263158,0 L68.5263158,0 C78.3382519,-1.80242342e-15 86.2923977,7.95414579 86.2923977,17.7660819 L86.2923977,27.9929543 C86.2923977,37.8048904 78.3382519,45.7590361 68.5263158,45.7590361 L68.5263158,45.7590361 C58.7143797,45.7590361 50.7602339,37.8048904 50.7602339,27.9929543 L50.7602339,17.7660819 C50.7602339,7.95414579 58.7143797,1.80242342e-15 68.5263158,0 Z" id="Rectangle-6-Copy-8" fill="#FFB8A2"></path>
                                        <rect id="Rectangle-22-Copy-3" fill="#3E2722" x="49.4912281" y="25.4216867" width="41.877193" height="26.6927711" rx="13.3463855"></rect>
                                    </g>
                                </g>
                                <path d="M6.5,101.686747 L210.5,101.686747 C214.089851,101.686747 217,104.596896 217,108.186747 L217,109.168675 C217,112.758526 214.089851,115.668675 210.5,115.668675 L6.5,115.668675 C2.91014913,115.668675 -4.48548481e-16,112.758526 -8.8817842e-16,109.168675 L-8.8817842e-16,108.186747 C-1.32780836e-15,104.596896 2.91014913,101.686747 6.5,101.686747 Z" id="Rectangle-19" fill="#B8C0D0"></path>
                                <rect id="Rectangle-31" fill="#0A2440" x="15.2280702" y="115.668675" width="187.812865" height="95.3313253"></rect>
                            </g>
                        </g>
                    </g>
                </g>
                <g id="Group-7" mask="url(#mask-2)">
                    <g transform="translate(149.000000, -20.000000)">
                        <g id="Group-4" stroke-width="1" fill="none" transform="translate(0.000000, 96.000000)">
                            <path d="M143,60 L143,60 C162.882251,60 179,76.117749 179,96 L179,128 L107,128 L107,96 C107,76.117749 123.117749,60 143,60 Z" id="Rectangle-29" fill="#B8C0D0"></path>
                            <path d="M122.5,80 L122.5,80 C125.537566,80 128,82.4624339 128,85.5 L128,100 L117,100 L117,85.5 C117,82.4624339 119.462434,80 122.5,80 Z" id="Rectangle-29" fill="#E2E5EB"></path>
                            <rect id="Rectangle-29-Copy-2" fill="#071E37" x="117" y="109" width="11" height="10"></rect>
                            <rect id="Rectangle-29" fill="#B8C0D0" x="107" y="133" width="72" height="77"></rect>
                            <rect id="Rectangle-29-Copy-4" fill="#071E37" x="128" y="128" width="30" height="5"></rect>
                            <rect id="Rectangle-29-Copy-3" fill="#071E37" x="158" y="109" width="11" height="10"></rect>
                            <rect id="Rectangle-30" fill="#071E37" x="113" y="142" width="59" height="62"></rect>
                            <rect id="Rectangle-30-Copy" fill="#818792" x="99" y="142" width="14" height="62"></rect>
                            <rect id="Rectangle-29-Copy-5" fill="#FFD63F" x="120" y="161" width="8" height="8"></rect>
                            <rect id="Rectangle-29-Copy-6" fill="#6932F4" x="120" y="175" width="8" height="8"></rect>
                            <rect id="Rectangle-29-Copy-7" fill="#6932F4" x="120" y="189" width="8" height="8"></rect>
                            <g id="Group-2" transform="translate(66.000000, 212.000000)">
                                <rect id="Rectangle" stroke="#E2E5EB" stroke-width="4" fill="#0A2440" x="0" y="0" width="149" height="52" rx="26"></rect>
                                <g id="Group" transform="translate(9.000000, 8.000000)">
                                    <path d="M14.3181818,0 L20.6818182,0 L20.6818182,6.36363636 L14.3181818,6.36363636 L14.3181818,0 Z M27.8409091,2.65932048 L32.3406795,7.15909091 L27.8409091,11.6588613 L23.3411387,7.15909091 L27.8409091,2.65932048 Z M35,14.3181818 L35,20.6818182 L28.6363636,20.6818182 L28.6363636,14.3181818 L35,14.3181818 Z M32.3406795,27.8409091 L27.8409091,32.3406795 L23.3411387,27.8409091 L27.8409091,23.3411387 L32.3406795,27.8409091 Z M20.6818182,35 L14.3181818,35 L14.3181818,28.6363636 L20.6818182,28.6363636 L20.6818182,35 Z M7.15909091,32.3406795 L2.65932048,27.8409091 L7.15909091,23.3411387 L11.6588613,27.8409091 L7.15909091,32.3406795 Z M8.8817842e-16,20.6818182 L-2.80802616e-16,14.3181818 L6.36363636,14.3181818 L6.36363636,20.6818182 L8.8817842e-16,20.6818182 Z M2.65932048,7.15909091 L7.15909091,2.65932048 L11.6588613,7.15909091 L7.15909091,11.6588613 L2.65932048,7.15909091 Z" id="Rectangle-29-Copy-12" fill="#B8C0D0"></path>
                                    <circle id="Oval-18" fill="#B8C0D0" cx="17.5" cy="17.5" r="14.3181818"></circle>
                                    <circle id="Oval-18" fill="#0A2440" cx="17.5" cy="17.5" r="9.54545455"></circle>
                                </g>
                                <g id="Group-Copy" transform="translate(74.500000, 25.500000) rotate(-345.000000) translate(-74.500000, -25.500000) translate(57.000000, 8.000000)">
                                    <path d="M14.3181818,0 L20.6818182,0 L20.6818182,6.36363636 L14.3181818,6.36363636 L14.3181818,0 Z M27.8409091,2.65932048 L32.3406795,7.15909091 L27.8409091,11.6588613 L23.3411387,7.15909091 L27.8409091,2.65932048 Z M35,14.3181818 L35,20.6818182 L28.6363636,20.6818182 L28.6363636,14.3181818 L35,14.3181818 Z M32.3406795,27.8409091 L27.8409091,32.3406795 L23.3411387,27.8409091 L27.8409091,23.3411387 L32.3406795,27.8409091 Z M20.6818182,35 L14.3181818,35 L14.3181818,28.6363636 L20.6818182,28.6363636 L20.6818182,35 Z M7.15909091,32.3406795 L2.65932048,27.8409091 L7.15909091,23.3411387 L11.6588613,27.8409091 L7.15909091,32.3406795 Z M8.8817842e-16,20.6818182 L-2.80802616e-16,14.3181818 L6.36363636,14.3181818 L6.36363636,20.6818182 L8.8817842e-16,20.6818182 Z M2.65932048,7.15909091 L7.15909091,2.65932048 L11.6588613,7.15909091 L7.15909091,11.6588613 L2.65932048,7.15909091 Z" id="Rectangle-29-Copy-12" fill="#B8C0D0"></path>
                                    <circle id="Oval-18" fill="#B8C0D0" cx="17.5" cy="17.5" r="14.3181818"></circle>
                                    <circle id="Oval-18" fill="#0A2440" cx="17.5" cy="17.5" r="9.54545455"></circle>
                                </g>
                                <g id="Group-Copy-2" transform="translate(123.500000, 25.500000) rotate(-315.000000) translate(-123.500000, -25.500000) translate(106.000000, 8.000000)">
                                    <path d="M14.3181818,0 L20.6818182,0 L20.6818182,6.36363636 L14.3181818,6.36363636 L14.3181818,0 Z M27.8409091,2.65932048 L32.3406795,7.15909091 L27.8409091,11.6588613 L23.3411387,7.15909091 L27.8409091,2.65932048 Z M35,14.3181818 L35,20.6818182 L28.6363636,20.6818182 L28.6363636,14.3181818 L35,14.3181818 Z M32.3406795,27.8409091 L27.8409091,32.3406795 L23.3411387,27.8409091 L27.8409091,23.3411387 L32.3406795,27.8409091 Z M20.6818182,35 L14.3181818,35 L14.3181818,28.6363636 L20.6818182,28.6363636 L20.6818182,35 Z M7.15909091,32.3406795 L2.65932048,27.8409091 L7.15909091,23.3411387 L11.6588613,27.8409091 L7.15909091,32.3406795 Z M8.8817842e-16,20.6818182 L-2.80802616e-16,14.3181818 L6.36363636,14.3181818 L6.36363636,20.6818182 L8.8817842e-16,20.6818182 Z M2.65932048,7.15909091 L7.15909091,2.65932048 L11.6588613,7.15909091 L7.15909091,11.6588613 L2.65932048,7.15909091 Z" id="Rectangle-29-Copy-12" fill="#B8C0D0"></path>
                                    <circle id="Oval-18" fill="#B8C0D0" cx="17.5" cy="17.5" r="14.3181818"></circle>
                                    <circle id="Oval-18" fill="#0A2440" cx="17.5" cy="17.5" r="9.54545455"></circle>
                                </g>
                            </g>
                            <path d="M179,142 C195.666667,142 207.166667,145.666667 213.5,153 C219.833333,160.333333 223,172 223,188" id="Line" stroke="#B8C0D0" stroke-width="10" stroke-linecap="square"></path>
                            <g id="Group-3">
                                <rect id="Rectangle-2" fill="#B8C0D0" transform="translate(231.000000, 197.232051) rotate(-330.000000) translate(-231.000000, -197.232051) " x="224" y="195.232051" width="14" height="4" rx="2"></rect>
                                <rect id="Rectangle-2-Copy" fill="#B8C0D0" transform="translate(215.000000, 197.232051) rotate(-30.000000) translate(-215.000000, -197.232051) " x="208" y="195.232051" width="14" height="4" rx="2"></rect>
                                <rect id="Rectangle-2" fill="#B8C0D0" transform="translate(223.000000, 202.000000) rotate(-270.000000) translate(-223.000000, -202.000000) " x="216" y="200" width="14" height="4" rx="2"></rect>
                                <circle id="Oval" fill="#071E37" cx="223" cy="193" r="7"></circle>
                                <g id="Group-5" transform="translate(44.901281, 44.901281) rotate(-225.000000) translate(-44.901281, -44.901281) translate(14.901281, 11.401281)">
                                    <path d="M0,0 C16.6666667,0 28.1666667,3.66666667 34.5,11 C40.8333333,18.3333333 44,30 44,46" id="Line" stroke="#B8C0D0" stroke-width="10" stroke-linecap="square"></path>
                                    <rect id="Rectangle-2" fill="#B8C0D0" transform="translate(52.000000, 55.232051) rotate(-330.000000) translate(-52.000000, -55.232051) " x="45" y="53.2320508" width="14" height="4" rx="2"></rect>
                                    <rect id="Rectangle-2-Copy" fill="#B8C0D0" transform="translate(36.000000, 55.232051) rotate(-30.000000) translate(-36.000000, -55.232051) " x="29" y="53.2320508" width="14" height="4" rx="2"></rect>
                                    <rect id="Rectangle-2" fill="#B8C0D0" transform="translate(44.000000, 60.000000) rotate(-270.000000) translate(-44.000000, -60.000000) " x="37" y="58" width="14" height="4" rx="2"></rect>
                                    <circle id="Oval" fill="#071E37" cx="44" cy="51" r="7"></circle>
                                </g>
                            </g>
                        </g>
                        <rect id="Rectangle-20" fill="#0A2440" transform="translate(34.000000, 71.000000) rotate(-270.000000) translate(-34.000000, -71.000000) " x="-37" y="69" width="142" height="4" rx="2"></rect>
                        <rect id="Rectangle-20-Copy" fill="#0A2440" transform="translate(83.000000, 71.000000) rotate(-270.000000) translate(-83.000000, -71.000000) " x="12" y="69" width="142" height="4" rx="2"></rect>
                        <rect id="Rectangle-32" fill="#FFD63F" transform="translate(84.838835, 146.838835) rotate(-45.000000) translate(-84.838835, -146.838835) " x="80.3388348" y="138.838835" width="9" height="16" rx="2"></rect>
                        <rect id="Rectangle-32-Copy" fill="#FFD63F" transform="translate(31.897114, 147.178203) rotate(-330.000000) translate(-31.897114, -147.178203) " x="27.3971143" y="139.178203" width="9" height="16" rx="2"></rect>
                    </g>
                </g>
                <path d="M183.5,227.5 L190.700007,227.5 C207.26855,227.5 220.700007,240.931458 220.700007,257.5 C220.700007,257.599499 220.699512,257.698998 220.698522,257.798493 L220.261182,301.751201 C220.118363,316.104527 231.638254,327.855973 245.991579,327.998792 C246.077749,327.99965 246.163923,328.000079 246.250098,328.000079 L246.250098,328.000079 C260.747535,328.000123 272.500064,316.247664 272.500108,301.750227 C272.500108,301.750171 272.500108,301.750116 272.500108,301.75006 L272.5,269.5" id="Line-2" stroke="#FFD63F" stroke-width="4" stroke-linecap="round" mask="url(#mask-2)"></path>
                <path d="M182.5,227.5 L223,227.5 C239.568542,227.5 253,240.931458 253,257.5 L253,333.75 C253,348.247475 264.752525,360 279.25,360 L279.25,360 C293.747475,360 305.5,348.247475 305.5,333.75 L305.5,236.5" id="Line-2" stroke="#00B993" stroke-width="4" stroke-linecap="round" mask="url(#mask-2)"></path>
                <path d="M96.4035088,167.403614 L173.040936,167.403614 C177.459214,167.403614 181.040936,170.985336 181.040936,175.403614 L181.040936,224.60241 L88.4035088,224.60241 L88.4035088,175.403614 C88.4035088,170.985336 91.9852308,167.403614 96.4035088,167.403614 Z" id="Rectangle-22-Copy" fill="#E2E5EB" mask="url(#mask-2)"></path>
                <rect id="Rectangle-20" fill="#0A2440" mask="url(#mask-2)" x="79.5204678" y="224.60241" width="104.05848" height="5.08433735" rx="2.54216867"></rect>
            </g>
            <mask id="mask-4" fill="white">
                <use xlink:href="#path-3"></use>
            </mask>
            <use id="Oval-8-Copy" stroke="#FFFFFF" stroke-width="8" stroke-linecap="round" stroke-linejoin="round" xlink:href="#path-3"></use>
        </g>
    </g>
</svg>