<?xml version="1.0" encoding="UTF-8"?>
<svg width="630px" height="360px" viewBox="0 0 630 360" version="1.1" xmlns="http://www.w3.org/2000/svg" xmlns:xlink="http://www.w3.org/1999/xlink">
    <!-- Generator: Sketch 50 (54983) - http://www.bohemiancoding.com/sketch -->
    <title>team_header</title>
    <desc>Created with Sketch.</desc>
    <defs>
        <path d="M5.50353254,0.187012987 L27.5035325,0.187012987 C30.2649563,0.187012987 32.5035325,2.42558924 32.5035325,5.18701299 L32.5035325,5.18701299 C32.5035325,7.94843674 30.2649563,10.187013 27.5035325,10.187013 L23.6759463,10.187013 L22.5724981,10.187013 L20.3656015,10.187013 L19.2621532,10.187013 L5.50353254,10.187013 C2.74210879,10.187013 0.503532538,7.94843674 0.503532538,5.18701299 L0.503532538,5.18701299 C0.503532538,2.42558924 2.74210879,0.187012987 5.50353254,0.187012987 Z" id="path-1"></path>
    </defs>
    <g id="team_header" stroke="none" stroke-width="1" fill="none" fill-rule="evenodd">
        <g id="Guru" transform="translate(393.500000, 70.500000) rotate(-180.000000) translate(-393.500000, -70.500000) translate(302.000000, -78.000000)">
            <path d="M86.6671751,129.587264 L96.3328249,129.587264 C110.637,129.587264 122.232824,141.183089 122.232824,155.487264 L122.232824,206.639151 L60.7671756,206.639151 L60.7671756,155.487264 C60.7671756,141.183089 72.3630004,129.587264 86.6671751,129.587264 Z" id="Rectangle-5" fill="#FFFFFF"></path>
            <path d="M105.079021,196.666768 L161.605396,196.666768 C171.276892,196.666768 179.117188,204.507065 179.117188,214.178561 L179.117188,214.178561 C179.117188,223.850057 171.276892,231.690353 161.605396,231.690353 L105.079021,231.690353 L105.079021,196.666768 Z" id="Rectangle-6-Copy-2" fill="#E2E5EB" transform="translate(142.098104, 214.178561) rotate(15.000000) translate(-142.098104, -214.178561) "></path>
            <path d="M3.72899487,197.911126 L64.44621,197.911126 C74.117706,197.911126 81.9580025,205.751423 81.9580025,215.422919 L81.9580025,215.422919 C81.9580025,225.094415 74.117706,232.934711 64.44621,232.934711 L3.72899487,232.934711 L3.72899487,197.911126 Z" id="Rectangle-6-Copy-3" fill="#E2E5EB" transform="translate(42.843499, 215.422919) scale(-1, 1) rotate(15.000000) translate(-42.843499, -215.422919) "></path>
            <polygon id="Rectangle" fill="#E2E5EB" transform="translate(91.849237, 159.707547) rotate(-90.000000) translate(-91.849237, -159.707547) " points="56.2270992 122.232311 127.471374 113.826651 127.471374 205.588443 56.2270992 196.482311"></polygon>
            <path d="M78.7282006,109.595827 L82.9437023,109.098467 L118.56584,104.895637 L118.56584,196.657429 L82.9437023,192.104363 L78.5801566,191.546634 C70.8923783,190.564016 65.1326336,184.021228 65.1326336,176.270907 L65.1326336,124.889748 C65.1326336,117.082572 70.9748024,110.510602 78.7282006,109.595827 Z" id="Rectangle" fill="#FFFFFF" transform="translate(91.849237, 150.776533) rotate(-90.000000) translate(-91.849237, -150.776533) "></path>
            <g id="Group-6" transform="translate(37.717557, 22.415094)"></g>
            <polyline id="Path-3" stroke="#FFFFFF" stroke-width="29.3999995" stroke-linejoin="round" points="60.5956175 59.245283 32.6566862 95.6698113 56.8330545 130.693396 91.5 130.693396 124.328244 130.693396 149.882688 95.6698113 121.943756 59.9457547"></polyline>
            <path d="M83.1183206,110.674528 L99.8816794,110.674528 L99.8816794,142.920207 C99.8816794,147.549281 96.1290737,151.301887 91.5,151.301887 L91.5,151.301887 C86.8709263,151.301887 83.1183206,147.549281 83.1183206,142.920207 L83.1183206,110.674528 Z" id="Rectangle-6-Copy-7" fill="#FFB8A2"></path>
            <polygon id="Rectangle-24" fill="#EBEBEB" points="67.7519084 115.983491 83.1183206 115.983491 94.9923664 150.824344 79.990375 150.824344"></polygon>
            <polygon id="Rectangle-24" fill="#EBEBEB" transform="translate(101.627863, 133.403917) scale(-1, 1) translate(-101.627863, -133.403917) " points="88.0076336 115.983491 103.374046 115.983491 115.248092 150.824344 100.2461 150.824344"></polygon>
            <g id="Group-5" transform="translate(41.606870, 0.000000)">
                <ellipse id="Oval-7" fill="#028D70" cx="50.5916031" cy="49.7334906" rx="34.9236641" ry="35.0235849"></ellipse>
                <path d="M50.5916031,78.7476415 L50.5916031,78.7476415 C60.2355066,78.7476415 68.0534351,86.56557 68.0534351,96.2094736 L68.0534351,111.719772 C68.0534351,121.363675 60.2355066,129.181604 50.5916031,129.181604 L50.5916031,129.181604 C40.9476995,129.181604 33.129771,121.363675 33.129771,111.719772 L33.129771,96.2094736 C33.129771,86.56557 40.9476995,78.7476415 50.5916031,78.7476415 Z" id="Rectangle-6-Copy-6" fill="#FFCDBE"></path>
                <path d="M50.5916031,101.420804 C52.2309282,101.420804 54.3263481,100.075161 56.8778626,97.3838754 C54.3263481,94.7663232 52.2309282,93.4575472 50.5916031,93.4575472 C48.5111369,93.4575472 46.415717,94.7663232 44.3053435,97.3838754 C46.415717,100.075161 48.5111369,101.420804 50.5916031,101.420804 Z" id="Oval-6-Copy-3" fill="#FFFFFF"></path>
                <ellipse id="Oval-6-Copy-4" fill="#2E1FA6" cx="50.5916031" cy="97.6603774" rx="2.79389313" ry="2.80188679"></ellipse>
                <path d="M98.1108419,54.659914 C98.1108419,35.3169222 82.4749849,19.6363291 63.1871778,19.6363291 C43.8993707,19.6363291 28.2635136,35.3169222 28.2635136,54.659914 L98.1108419,54.659914 Z" id="Oval-7" fill="#02AD8A" transform="translate(63.187178, 37.148122) rotate(-315.000000) translate(-63.187178, -37.148122) "></path>
                <path d="M72.9658037,54.659914 C72.9658037,35.3169222 57.3299467,19.6363291 38.0421396,19.6363291 C18.7543325,19.6363291 3.11847546,35.3169222 3.11847546,54.659914 L72.9658037,54.659914 Z" id="Oval-7" fill="#00B993" transform="translate(38.042140, 37.148122) rotate(-45.000000) translate(-38.042140, -37.148122) "></path>
            </g>
            <path d="M4.19083969,204.537736 L75.3871525,204.537736 C84.6717886,204.537736 92.1984733,212.064421 92.1984733,221.349057 L92.1984733,221.349057 C92.1984733,230.633693 84.6717886,238.160377 75.3871525,238.160377 L4.19083969,238.160377 L4.19083969,204.537736 Z" id="Rectangle-9-Copy-2" fill="#FFFFFF" transform="translate(48.194656, 221.349057) scale(-1, 1) translate(-48.194656, -221.349057) "></path>
            <path d="M92.1984733,204.537736 L163.394786,204.537736 C172.679422,204.537736 180.206107,212.064421 180.206107,221.349057 L180.206107,221.349057 C180.206107,230.633693 172.679422,238.160377 163.394786,238.160377 L92.1984733,238.160377 L92.1984733,204.537736 Z" id="Rectangle-9-Copy" fill="#FFFFFF"></path>
            <path d="M130.71681,231.15566 C129.278527,235.236582 125.397673,238.160377 120.835878,238.160377 C116.081838,238.160377 112.067341,234.984957 110.786253,230.633687 C106.769589,229.284368 102.1585,228.245223 96.9529839,227.51625 C94.2267309,227.134467 92.1984733,224.802384 92.1984733,222.049528 C92.1984733,219.341509 94.3937563,217.146226 97.1017752,217.146226 L119.438931,217.146226 C119.4522,217.175381 119.465431,217.2045 119.478622,217.233583 C119.922915,217.175949 120.375935,217.146226 120.835878,217.146226 C121.070585,217.146226 121.303489,217.153966 121.534351,217.169205 L121.534351,217.146226 L138.29771,217.146226 L138.29771,231.15566 L130.71681,231.15566 Z" id="Combined-Shape-Copy" fill="#FFB8A2" transform="translate(115.248092, 227.653302) rotate(-180.000000) translate(-115.248092, -227.653302) "></path>
            <path d="M84.6175736,211.542453 C83.1792899,215.623374 79.298436,218.54717 74.7366412,218.54717 C69.9826011,218.54717 65.9681042,215.37175 64.6870161,211.020479 C60.6703527,209.671161 56.059263,208.632015 50.8537472,207.903042 C48.1274943,207.521259 46.0992366,205.189176 46.0992366,202.436321 C46.0992366,199.728302 48.2945197,197.533019 51.0025385,197.533019 L73.3396947,197.533019 C73.3529637,197.562173 73.366194,197.591292 73.3793855,197.620375 C73.8236781,197.562741 74.2766986,197.533019 74.7366412,197.533019 C74.9713482,197.533019 75.2042526,197.540759 75.4351145,197.555998 L75.4351145,197.533019 L92.1984733,197.533019 L92.1984733,211.542453 L84.6175736,211.542453 Z" id="Combined-Shape-Copy-2" fill="#FFB8A2" transform="translate(69.148855, 208.040094) scale(-1, 1) rotate(-180.000000) translate(-69.148855, -208.040094) "></path>
        </g>
        <g id="Group" transform="translate(270.000000, 263.500000) scale(-1, 1) translate(-270.000000, -263.500000) translate(194.000000, 102.000000)">
            <polygon id="Rectangle-7" fill="#FFD63F" points="30 114 121.383103 101.960828 125.275003 323 30 317.791308"></polygon>
            <path d="M48.8518185,89.0249303 L101.979256,89.0249303 C112.695705,89.0249303 121.383103,97.7123284 121.383103,108.428777 L29.4479718,108.428777 L29.4479718,108.428777 C29.4479718,97.7123284 38.1353699,89.0249303 48.8518185,89.0249303 Z" id="Rectangle" fill="#FFD63F"></path>
            <path d="M39.9243111,101.960828 L107.45064,101.960828 L107.45064,101.960828 C111.942307,101.960828 115.583523,105.602044 115.583523,110.093711 C115.583523,110.694077 115.517045,111.292597 115.385306,111.878331 L99.8358068,181.013537 L48.1222953,181.013537 L32.5405488,111.17349 C31.6307353,107.095551 34.1990087,103.052178 38.2769481,102.142365 C38.8177638,102.021706 39.3701989,101.960828 39.9243111,101.960828 Z" id="Rectangle-5" fill="#DC3A09"></path>
            <rect id="Rectangle-9" fill="#0A2440" x="48.1222953" y="181.013537" width="51.7135114" height="127.23501"></rect>
            <rect id="Rectangle-9" fill="#FFD63F" x="51.7135114" y="184.606842" width="44.5310793" height="5.74928792"></rect>
            <rect id="Rectangle-9" fill="#071E37" x="73.9790511" y="216.870676" width="25.8567557" height="90.2211891"></rect>
            <g id="Group-7" transform="translate(76.000000, 114.000000) scale(1, -1) translate(-76.000000, -114.000000) ">
                <g id="Group-3" transform="translate(36.500000, 56.678065) scale(1, -1) translate(-36.500000, -56.678065) translate(0.000000, 0.178065)">
                    <g id="Group-2" transform="translate(36.276738, 77.677784) rotate(-10.000000) translate(-36.276738, -77.677784) translate(5.033158, 47.494022)">
                        <path d="M29.9284603,35.2143885 C27.9266047,40.266029 22.9991551,43.8383204 17.2378371,43.8383204 C9.70101644,43.8383204 3.59121607,37.7249662 3.59121607,30.1837616 C3.59121607,22.8836207 9.31664537,16.9215033 16.5195939,16.5477903 L16.5195939,16.5292028 L61.0506732,16.5292028 L61.0506732,35.2143885 L29.9284603,35.2143885 Z" id="Combined-Shape" fill="#FFB8A2" transform="translate(32.320945, 30.183762) rotate(-135.000000) translate(-32.320945, -30.183762) "></path>
                        <polygon id="Rectangle-2-Copy-2" fill="#0A2440" transform="translate(19.242268, 23.568269) rotate(-45.000000) translate(-19.242268, -23.568269) " points="9.31474723 9.06983839 29.1697893 7.25850923 29.1697893 37.4422708 10.4215459 39.8780295"></polygon>
                    </g>
                    <path d="M27.2932421,76.9481001 C11.0130626,64.6762737 2.87297286,51.8515904 2.87297286,38.4740501 C2.87297286,26.0360624 9.90980031,14.0760005 23.9834552,2.59386444 L23.9834551,2.59386435 C26.0397189,0.916240415 28.6121362,1.08845262e-13 31.265934,1.08357767e-13 L72.0424781,9.23705556e-14" id="Path-3" stroke="#F2400A" stroke-width="25.9199978" stroke-linejoin="round"></path>
                </g>
                <g id="Group-3" transform="translate(115.278036, 170.952283) scale(-1, 1) translate(-115.278036, -170.952283) translate(79.006754, 114.178065)">
                    <g id="Group-2" transform="translate(36.276738, 77.677784) rotate(-10.000000) translate(-36.276738, -77.677784) translate(5.033158, 47.494022)">
                        <path d="M29.9284603,35.2143885 C27.9266047,40.266029 22.9991551,43.8383204 17.2378371,43.8383204 C9.70101644,43.8383204 3.59121607,37.7249662 3.59121607,30.1837616 C3.59121607,22.8836207 9.31664537,16.9215033 16.5195939,16.5477903 L16.5195939,16.5292028 L61.0506732,16.5292028 L61.0506732,35.2143885 L29.9284603,35.2143885 Z" id="Combined-Shape" fill="#FFB8A2" transform="translate(32.320945, 30.183762) rotate(-135.000000) translate(-32.320945, -30.183762) "></path>
                        <polygon id="Rectangle-2-Copy-2" fill="#0A2440" transform="translate(19.242268, 23.568269) rotate(-45.000000) translate(-19.242268, -23.568269) " points="9.31474723 9.06983839 29.1697893 7.25850923 29.1697893 37.4422708 10.4215459 39.8780295"></polygon>
                    </g>
                    <path d="M27.2932421,76.9481001 C11.0130626,64.6762737 2.87297286,51.8515904 2.87297286,38.4740501 C2.87297286,26.0360624 9.90980031,14.0760005 23.9834552,2.59386444 L23.9834551,2.59386435 C26.0397189,0.916240415 28.6121362,1.11202308e-13 31.265934,1.08357767e-13 L72.0424781,9.23705556e-14" id="Path-3" stroke="#F2400A" stroke-width="25.9199978" stroke-linejoin="round"></path>
                </g>
            </g>
            <path d="M40.5621016,101.242167 L107.35872,101.242167 L107.35872,101.242167 C112.092736,101.242167 115.930414,105.079845 115.930414,109.813861 C115.930414,110.462208 115.856855,111.108461 115.711149,111.740224 L111.66818,129.269946 C107.884453,145.675634 93.2768006,157.297724 76.4404355,157.297724 L72.1200569,157.297724 C55.3756696,157.297724 40.8937399,145.630701 37.3300071,129.269946 L33.2121818,110.365404 C32.327988,106.306156 34.9018786,102.298704 38.9611272,101.41451 C39.4870818,101.299946 40.0238142,101.242167 40.5621016,101.242167 Z" id="Rectangle-5-Copy" fill="#F2400A"></path>
            <path d="M56.7251142,125.243467 L90.9797666,125.243467 L74.2972573,142.06955 C74.0535142,142.315391 73.65677,142.31695 73.4111045,142.073033 C73.4103279,142.072262 67.8483311,136.462407 56.7251142,125.243467 Z" id="Triangle-Copy-4" fill="#FFD63F"></path>
            <path d="M61.0506732,85.4316254 L86.9074289,85.4316254 L86.9074289,101.249687 C86.9074289,108.389833 81.119197,114.178065 73.9790511,114.178065 L73.9790511,114.178065 C66.8389051,114.178065 61.0506732,108.389833 61.0506732,101.249687 L61.0506732,85.4316254 Z" id="Rectangle-6-Copy-7" fill="#F2A891"></path>
            <path d="M73.3082394,47.3425929 L74.6498627,47.3425929 C85.3862773,47.3425929 94.0898611,56.0461766 94.0898611,66.7825912 L94.0898611,77.4902029 C94.0898611,88.2266175 85.3862773,96.9302012 74.6498627,96.9302012 L73.3082394,96.9302012 C62.5718248,96.9302012 53.8682411,88.2266175 53.8682411,77.4902029 L53.8682411,66.7825912 C53.8682411,56.0461766 62.5718248,47.3425929 73.3082394,47.3425929 Z" id="Rectangle-6-Copy-8" fill="#FFB8A2"></path>
            <g transform="translate(76.467566, 47.000000) scale(-1, 1) translate(-76.467566, -47.000000) translate(56.967566, 38.000000)" fill="#FFD63F" id="Rectangle-6-Copy-12">
                <path d="M5.74917027,5.74928792 L33.2171412,5.74928792 C36.3923203,5.74928792 38.9663115,8.32327913 38.9663115,11.4984582 L38.9663115,11.4984582 C38.9663115,14.6736373 36.3923203,17.2476285 33.2171412,17.2476285 L5.74917027,17.2476285 C2.57399121,17.2476285 -9.08217728e-13,14.6736373 -9.08606523e-13,11.4984582 L-9.08606523e-13,11.4984582 C-9.08995318e-13,8.32327913 2.57399121,5.74928792 5.74917027,5.74928792 Z"></path>
                <path d="M12.3957913,7.65744889e-16 L27.4692252,2.66453526e-15 C33.8195833,1.49798793e-15 38.9675657,5.14798241 38.9675657,11.4983405 L12.3957913,11.4983405 C9.22061228,11.4983405 6.64662107,8.92434934 6.64662107,5.74917027 L6.64662107,5.74917027 C6.64662107,2.57399121 9.22061228,2.3596305e-15 12.3957913,1.77635684e-15 Z"></path>
            </g>
        </g>
        <g id="Group-5" transform="translate(7.000000, 170.000000)">
            <g id="Ninja">
                <rect id="Rectangle-6-Copy" fill="#071E37" transform="translate(149.137934, 86.636496) rotate(45.000000) translate(-149.137934, -86.636496) " x="114.875846" y="73.6676739" width="68.5241768" height="25.9376448" rx="12.9688224"></rect>
                <rect id="Rectangle-6-Copy" fill="#071E37" transform="translate(33.428584, 86.321272) rotate(-225.000000) translate(-33.428584, -86.321272) " x="-0.833504423" y="73.3524495" width="68.5241768" height="25.9376448" rx="12.9688224"></rect>
                <g id="Group" transform="translate(36.634398, 0.641016)">
                    <path d="M52.6296992,3.55271368e-15 L52.6296992,3.55271368e-15 C64.7686159,1.32283086e-15 74.6091522,9.84053627 74.6091522,21.9794529 L74.6091522,30.4767327 L74.6091522,60.9534654 L30.6502463,60.9534654 L30.6502463,21.9794529 C30.6502463,9.84053627 40.4907826,5.7825965e-15 52.6296992,3.55271368e-15 Z" id="Rectangle-4" fill="#071E37"></path>
                    <g id="Oval" transform="translate(36.862069, 33.171971)">
                        <mask id="mask-2" fill="white">
                            <use xlink:href="#path-1"></use>
                        </mask>
                        <use id="Mask" fill="#FFB8A2" xlink:href="#path-1"></use>
                    </g>
                    <g id="Group-6" transform="translate(37.411330, 17.069841) scale(-1, 1) translate(-37.411330, -17.069841) translate(0.000000, 4.492063)">
                        <polyline id="Path-7" stroke="#DC3A09" stroke-width="10.3679995" stroke-linejoin="round" transform="translate(56.241541, 20.797140) scale(-1, 1) translate(-56.241541, -20.797140) " points="68.5241768 16.9064935 56.2415414 24.687787 43.9589059 24.687787"></polyline>
                        <rect id="Rectangle-4-Copy" fill="#F2400A" x="0" y="12.3674057" width="43.9589059" height="10.3750579"></rect>
                        <polyline id="Path-6" stroke="#F2400A" stroke-width="10.3679995" stroke-linejoin="round" transform="translate(57.617393, 9.611531) scale(-1, 1) translate(-57.617393, -9.611531) " points="74.1849254 18.5275963 60.2861537 8.14250236 48.6499727 8.14250236 41.0498606 0.695465477"></polyline>
                    </g>
                </g>
                <polygon id="Rectangle-9" fill="#0A2440" points="64.6988268 130.977682 120.293914 130.977682 120.293914 282.101587 64.6988268 282.101587"></polygon>
                <rect id="Rectangle-9" fill="#071E37" x="94.6551724" y="159.019048" width="25.9449718" height="115.312427"></rect>
                <path d="M71.0447563,130.977682 L113.710753,130.977682 L113.710753,202.371763 C113.710753,214.153653 104.159644,223.704762 92.3777547,223.704762 L92.3777547,223.704762 C80.595865,223.704762 71.0447563,214.153653 71.0447563,202.371763 L71.0447563,130.977682 Z" id="Rectangle-9" fill="#0E3156"></path>
                <path d="M54.3555548,58.352276 L115.739608,58.352276 C128.981187,58.352276 139.715607,69.0866963 139.715607,82.3282749 C139.715607,86.2903919 138.733701,90.1907534 136.857692,93.6805901 L120.293914,124.49327 L119.647459,130.977682 L65.9917358,130.977682 L54.3555548,58.352276 Z" id="Rectangle-5" fill="#071E37"></path>
                <polygon id="Rectangle-5" fill="#0A2440" points="110.546853 58.352276 155.848911 58.352276 106.071915 131.626123 80.8601893 131.626123 73.979817 117.208272"></polygon>
                <polygon id="Rectangle-5" fill="#0E3156" points="23.9721934 58.352276 68.2543265 58.352276 120.293914 131.561275 76.3350078 131.561275"></polygon>
                <polygon id="Rectangle-10" fill="#DC3A09" points="64.6988268 124.49327 120.293914 124.49327 120.293914 131.626123 64.6988268 131.626123"></polygon>
            </g>
            <g id="Group-4" transform="translate(91.049261, 77.263492)">
                <path d="M5.408867,30.4202312 C2.63218206,29.8959584 0.473418473,27.7888791 0.0684693584,25.1555556 L0,25.1555556 L-8.8817842e-16,4.05665025 C-1.16255148e-15,1.81622418 1.81622418,4.11559592e-16 4.05665025,0 C6.42321429,-4.34730762e-16 8.46857758,1.65232248 8.9660587,3.9660074 L11.9767769,17.968254 L18.9310345,17.968254 L18.9310345,30.5460317 L5.408867,30.5460317 L5.408867,30.4202312 Z" id="Combined-Shape-Copy-2" fill="#FFB8A2"></path>
                <polygon id="Rectangle-Copy" fill="#F2400A" points="16.226601 17.968254 36.0591133 17.968254 36.0591133 30.5460317 16.226601 30.5460317"></polygon>
                <path d="M31.8366525,12.8623989 L74.456735,12.8623989 C81.6192179,12.8623989 87.4255574,18.6687385 87.4255574,25.8312213 L87.4255574,25.8312213 C87.4255574,32.9937042 81.6192179,38.8000437 74.456735,38.8000437 L31.8366525,38.8000437 C30.4051305,38.8000437 29.2446526,37.6395659 29.2446526,36.2080438 L29.2446526,15.4543988 C29.2446526,14.0228768 30.4051305,12.8623989 31.8366525,12.8623989 Z" id="Rectangle-6-Copy" fill="#0A2440"></path>
            </g>
            <g id="Group-4" transform="translate(47.327586, 97.028571) scale(-1, 1) translate(-47.327586, -97.028571) translate(3.605911, 77.263492)">
                <path d="M5.408867,30.4202312 C2.63218206,29.8959584 0.473418473,27.7888791 0.0684693584,25.1555556 L0,25.1555556 L0,4.05665025 C-2.74373061e-16,1.81622418 1.81622418,4.11559592e-16 4.05665025,0 C6.42321429,-4.34730762e-16 8.46857758,1.65232248 8.9660587,3.9660074 L11.9767769,17.968254 L18.9310345,17.968254 L18.9310345,30.5460317 L5.408867,30.5460317 L5.408867,30.4202312 Z" id="Combined-Shape-Copy-2" fill="#FFB8A2"></path>
                <polygon id="Rectangle-Copy" fill="#F2400A" points="16.226601 17.968254 36.0591133 17.968254 36.0591133 30.5460317 16.226601 30.5460317"></polygon>
                <path d="M31.8366525,12.8623989 L74.456735,12.8623989 C81.6192179,12.8623989 87.4255574,18.6687385 87.4255574,25.8312213 L87.4255574,25.8312213 C87.4255574,32.9937042 81.6192179,38.8000437 74.456735,38.8000437 L31.8366525,38.8000437 C30.4051305,38.8000437 29.2446526,37.6395659 29.2446526,36.2080438 L29.2446526,15.4543988 C29.2446526,14.0228768 30.4051305,12.8623989 31.8366525,12.8623989 Z" id="Rectangle-6-Copy" fill="#0A2440"></path>
            </g>
        </g>
        <g id="Group-13" transform="translate(398.000000, 160.000000)">
            <path d="M20.9376835,58.3636543 L20.9376835,58.3636543 C22.4322547,58.3636543 23.7914671,59.229566 24.4231033,60.5841061 L31.3006323,75.3329268 C32.521471,77.9510083 32.8056286,80.9090842 32.1055105,83.711696 L30.3876835,90.5882533 L30.3876835,96.8930661 L18.4876835,96.8930661 L18.4876835,60.8136543 C18.4876835,59.4605567 19.5845858,58.3636543 20.9376835,58.3636543 Z" id="Combined-Shape-Copy-4" fill="#FFB8A2" transform="translate(25.483909, 77.628360) scale(-1, 1) rotate(-315.000000) translate(-25.483909, -77.628360) "></path>
            <g id="Group-12" transform="translate(0.000000, 13.310160)">
                <path d="M120.248639,28.0213904 L133.515789,28.0213904 C144.783143,28.0213904 155.016353,34.5901123 159.707987,44.8342246 L163.775357,53.7152648 C165.063171,56.527188 163.827637,59.850682 161.015713,61.1384963 C160.284021,61.4735993 159.488697,61.6470588 158.683919,61.6470588 L94.3980794,61.6470588 C91.3052848,61.6470588 88.7980795,59.1398535 88.7980795,56.0470589 C88.7980795,55.2100283 88.9857167,54.3836438 89.34719,53.6286886 L93.5579872,44.8342246 C98.4773378,34.5599107 108.857347,28.0213904 120.248639,28.0213904 Z" id="Rectangle-35" fill="#071E37"></path>
                <path d="M126.7,28.0213904 L126.7,28.0213904 C136.769167,28.0213904 145.745545,34.3665961 149.104827,43.8588747 L152.757005,54.1787832 C153.788825,57.0943835 152.261719,60.2944001 149.346119,61.3262203 C148.746118,61.5385585 148.114309,61.6470588 147.477843,61.6470588 L105.922157,61.6470588 C102.829362,61.6470588 100.322157,59.1398535 100.322157,56.0470589 C100.322157,55.4105929 100.430657,54.7787844 100.642995,54.1787832 L104.295173,43.8588747 C107.654455,34.3665961 116.630833,28.0213904 126.7,28.0213904 Z" id="Rectangle-35" fill="#6932F4"></path>
                <g id="Group-3">
                    <polygon id="Rectangle-6-Copy-5" fill="#FFB8A2" points="118.3 32.9251337 135.1 32.9251337 135.1 60.9465241 118.3 60.9465241"></polygon>
                    <path d="M126,-7.10542736e-15 L127.400114,-3.88592864e-05 C137.838296,-3.88592864e-05 146.300114,8.46177922 146.300114,18.8999608 C146.300114,18.8999738 146.300114,18.8999867 146.300114,18.8999997 L146.3,36.4422463 C146.299979,46.8804127 137.838167,55.3422071 127.4,55.3422071 L126,55.342246 C115.561818,55.342246 107.1,46.8804279 107.1,36.4422463 L107.1,18.8999997 C107.1,8.46181808 115.561818,-5.18796451e-15 126,-7.10542736e-15 Z" id="Rectangle-6-Copy-6" fill="#FFB8A2"></path>
                    <path d="M126,-7.10542736e-15 L127.400114,-3.88592864e-05 C137.838296,-3.88592864e-05 146.300114,8.46177922 146.300114,18.8999608 C146.300114,18.8999738 146.300114,18.8999867 146.300114,18.8999997 L146.3,36.4422463 C146.299979,46.8804127 137.838167,55.3422071 127.4,55.3422071 L126,55.342246 C115.561818,55.342246 107.1,46.8804279 107.1,36.4422463 L107.1,18.8999997 C107.1,8.46181808 115.561818,-5.18796451e-15 126,-7.10542736e-15 Z" id="Rectangle-6-Copy-6" fill="#FFB8A2"></path>
                    <path d="M121.1,10.5080214 L132.300114,10.5079926 C140.0321,10.5079926 146.300114,16.776006 146.300114,24.5079924 C146.300114,24.508002 146.300114,24.5080116 146.300114,24.5080212 L146.3,51.8502676 C146.299984,59.5822427 140.031975,65.8502386 132.3,65.8502386 L121.1,65.8502674 C113.368013,65.8502674 107.1,59.582254 107.1,51.8502676 L107.1,24.5080212 C107.1,16.7760348 113.368013,10.5080214 121.1,10.5080214 Z" id="Rectangle-6-Copy-6" fill="#FFB8A2"></path>
                    <polyline id="Path-3" stroke="#2E1FA6" stroke-width="29.3999995" stroke-linejoin="round" points="41.3 79.1604278 73.8521005 112.786096 95.9 75.657754 157.5 75.657754 183.4 112.786096 144.2 142.208556"></polyline>
                    <rect id="Rectangle-2-Copy" fill="#8150FD" transform="translate(42.700000, 81.962567) rotate(-315.000000) translate(-42.700000, -81.962567) " x="37.1" y="60.9465241" width="11.2" height="42.0320856" rx="2.79999995"></rect>
                    <path d="M110.134996,60.9465241 L143.328907,60.9465241 C157.633082,60.9465241 169.228907,72.5423488 169.228907,86.8465236 C169.228907,88.1002537 169.137874,89.3523291 168.956526,90.5928741 L165.044696,117.352485 C163.83838,125.60452 156.761116,131.72242 148.421376,131.72242 L105.042528,131.72242 C96.7027874,131.72242 89.6255238,125.60452 88.4192076,117.352485 L84.5073778,90.5928741 C82.4383256,76.4391312 92.234903,63.2879572 106.388646,61.218905 C107.629191,61.0375571 108.881266,60.9465241 110.134996,60.9465241 Z" id="Rectangle-5" fill="#2E1FA6"></path>
                    <path d="M78.2294184,60.9465241 L175.204847,60.9465241 C176.751244,60.9465241 178.004847,62.2001267 178.004847,63.746524 C178.004847,63.9027002 177.99178,64.0586026 177.965784,64.2126 L172.481082,96.7028329 C171.11627,104.787697 164.114712,110.706377 155.91546,110.706377 L97.5188051,110.706377 C89.3195532,110.706377 82.3179955,104.787697 80.9531833,96.7028329 L75.4684814,64.2126 C75.2110748,62.6877766 76.2385191,61.2429937 77.7633424,60.985587 C77.9173398,60.9595906 78.0732422,60.9465241 78.2294184,60.9465241 Z" id="Rectangle-5" fill="#071E37"></path>
                    <polygon id="Rectangle-6-Copy-4" fill="#FFB8A2" points="116.9 53.9411765 135.8 53.9411765 135.8 81.9625668 120.4 81.9625668"></polygon>
                    <rect id="Rectangle-4-Copy" fill="#FFFFFF" x="129.798944" y="18.7782882" width="12.6" height="4.20320856" rx="2.10160428"></rect>
                    <rect id="Rectangle-4-Copy-2" fill="#FFFFFF" x="110.898944" y="18.7782882" width="12.6" height="4.20320856" rx="2.10160428"></rect>
                    <g id="Group" transform="translate(214.200000, 4.903743)"></g>
                    <g id="Group-6-Copy" transform="translate(0.000000, 56.042781)"></g>
                </g>
                <path d="M126.7,90.0187166 L126.7,90.0187166 C139.071178,90.0187166 149.1,79.989895 149.1,67.6187166 L149.1,50.4213904 C149.1,38.050212 139.071178,28.0213904 126.7,28.0213904 L126.7,28.0213904 C114.328822,28.0213904 104.3,38.050212 104.3,50.4213904 L104.3,67.6187166 C104.3,79.989895 114.328822,90.0187166 126.7,90.0187166 Z" id="Oval-2" fill="#FFFFFF"></path>
                <path d="M159.59512,71.4496614 L163.533177,71.4496614 C164.306376,71.4496614 164.933177,72.0764627 164.933177,72.8496613 C164.933177,73.2207792 164.785825,73.5767126 164.523505,73.8392328 L160.585447,77.780299 C160.038922,78.3272418 159.152491,78.3275802 158.605548,77.781055 C158.342766,77.5184734 158.19512,77.1622159 158.19512,76.7907276 L158.19512,72.8496613 C158.19512,72.0764627 158.821921,71.4496614 159.59512,71.4496614 Z" id="Rectangle-33" fill="#02AD8A" transform="translate(161.563236, 74.820351) rotate(-135.000000) translate(-161.563236, -74.820351) "></path>
                <path d="M112.7,129.59893 L121.1,129.59893 C121.873199,129.59893 122.5,130.225732 122.5,130.99893 L122.5,220.669519 C122.5,221.442717 121.873199,222.069519 121.1,222.069519 L112.7,222.069519 C111.926801,222.069519 111.3,221.442717 111.3,220.669519 L111.3,130.99893 C111.3,130.225732 111.926801,129.59893 112.7,129.59893 Z" id="Rectangle-2-Copy-3" fill="#5D27E5" transform="translate(116.900000, 175.834225) rotate(-360.000000) translate(-116.900000, -175.834225) "></path>
                <path d="M109.2,131.700479 L117.6,131.700479 C118.373199,131.700479 119,132.32728 119,133.100479 L119,191.947594 C119,192.720792 118.373199,193.347594 117.6,193.347594 L109.2,193.347594 C108.426801,193.347594 107.8,192.720792 107.8,191.947594 L107.8,133.100479 C107.8,132.32728 108.426801,131.700479 109.2,131.700479 Z" id="Rectangle-2-Copy-2" fill="#6932F4" transform="translate(113.400000, 162.524064) rotate(-360.000000) translate(-113.400000, -162.524064) "></path>
                <rect id="Rectangle-Copy" fill="#8150FD" x="93.1" y="126.796791" width="67.2" height="12.6096257" rx="2.79999995"></rect>
                <path d="M181.307852,248.688425 L142.900685,248.688425 C141.710964,240.370955 134.55785,233.977195 125.911394,233.977195 L73.5,233.977195 L89.8434013,144.318412 C90.2732692,141.512608 93.2081812,139.406417 96.6881145,139.406417 L155.767227,139.406417 C159.24716,139.406417 162.182072,141.512608 162.61194,144.318412 L181.307852,248.688425 Z" id="Combined-Shape" fill="#2E1FA6"></path>
                <path d="M137.941063,139.406417 L96.911081,139.406417 C93.4311476,139.406417 90.4962356,141.512608 90.0663677,144.318412 L79.1,201.886628 C118.256923,202.265716 137.870578,193.230843 137.940964,174.782008 C137.941096,174.747492 137.941129,162.955628 137.941063,139.406417 Z" id="Rectangle-5-Copy" fill="#071E37"></path>
                <path d="M112.7,130.299465 L121.1,130.299465 C121.873199,130.299465 122.5,130.926267 122.5,131.699465 L122.5,221.370053 C122.5,222.143252 121.873199,222.770053 121.1,222.770053 L112.7,222.770053 C111.926801,222.770053 111.3,222.143252 111.3,221.370053 L111.3,131.699465 C111.3,130.926267 111.926801,130.299465 112.7,130.299465 Z" id="Rectangle-2-Copy-3" fill="#5D27E5" transform="translate(116.900000, 176.534759) rotate(-360.000000) translate(-116.900000, -176.534759) "></path>
                <path d="M109.2,132.401013 L117.6,132.401013 C118.373199,132.401013 119,133.027815 119,133.801013 L119,192.648128 C119,193.421327 118.373199,194.048128 117.6,194.048128 L109.2,194.048128 C108.426801,194.048128 107.8,193.421327 107.8,192.648128 L107.8,133.801013 C107.8,133.027815 108.426801,132.401013 109.2,132.401013 Z" id="Rectangle-2-Copy-2" fill="#6932F4" transform="translate(113.400000, 163.224599) rotate(-360.000000) translate(-113.400000, -163.224599) "></path>
                <path d="M110.6,125.395722 L119,125.395722 C120.932997,125.395722 122.5,126.962725 122.5,128.895722 L122.5,136.607487 C122.5,138.927083 120.619596,140.807487 118.3,140.807487 L111.3,140.807487 C108.980404,140.807487 107.1,138.927083 107.1,136.607487 L107.1,128.895722 C107.1,126.962725 108.667003,125.395722 110.6,125.395722 Z" id="Rectangle-Copy-2" fill="#5D27E5"></path>
                <path d="M109.9,128.197861 L122.5,140.807487 L114.1,140.807487 C111.780404,140.807487 109.9,138.927083 109.9,136.607487 L109.9,128.197861 Z" id="Rectangle-Copy-2" fill="#6932F4" transform="translate(116.200000, 134.502674) scale(-1, 1) translate(-116.200000, -134.502674) "></path>
                <path d="M107.1,128.197861 L119.7,140.807487 L111.3,140.807487 C108.980404,140.807487 107.1,138.927083 107.1,136.607487 L107.1,128.197861 Z" id="Rectangle-Copy-2" fill="#8150FD"></path>
            </g>
            <rect id="Rectangle-50" fill="#FFFFFF" x="122.5" y="0" width="8.4" height="25.9197861" rx="4.2"></rect>
        </g>
    </g>
</svg>