<?xml version="1.0" encoding="UTF-8"?>
<svg width="410px" height="410px" viewBox="0 0 410 410" version="1.1" xmlns="http://www.w3.org/2000/svg" xmlns:xlink="http://www.w3.org/1999/xlink">
    <!-- Generator: Sketch 48.2 (47327) - http://www.bohemiancoding.com/sketch -->
    <title>philosopher/ill_2</title>
    <desc>Created with Sketch.</desc>
    <defs>
        <circle id="path-1" cx="201" cy="201" r="201"></circle>
        <circle id="path-3" cx="201" cy="201" r="201"></circle>
    </defs>
    <g id="philosopher/ill_2" stroke="none" stroke-width="1" fill="none" fill-rule="evenodd" transform="translate(-67.000000, -12.000000)">
        <g transform="translate(71.000000, 16.000000)">
            <mask id="mask-2" fill="white">
                <use xlink:href="#path-1"></use>
            </mask>
            <use id="Oval-8" fill="#B8C0D0" xlink:href="#path-1"></use>
            <g id="Group-2" mask="url(#mask-2)">
                <g transform="translate(-63.000000, -54.000000)">
                    <rect id="Rectangle-2" fill="#0A2440" x="79" y="378" width="370" height="94"></rect>
                    <rect id="Rectangle-2-Copy" fill="#0E3257" opacity="0.400000006" x="79" y="34" width="370" height="108"></rect>
                    <g id="Group-2-Copy" stroke-width="1" fill="none" transform="translate(353.000000, 0.000000)">
                        <g id="Group-3">
                            <path d="M175,378 C145.672515,243.299379 128.74269,167.572107 124.210526,150.818182 C117.412281,125.687295 107.774664,107 87.5,107 C67.2253362,107 57.5877193,127.372609 50.7894737,152.503497 C46.2573099,169.257421 29.3274854,244.422922 0,378 L175,378 Z" id="Oval-5" fill="#FBEC88"></path>
                            <g id="Group-4-Copy-2" transform="translate(6.000000, 212.000000)">
                                <g id="Group" transform="translate(43.000000, 0.000000)">
                                    <rect id="Rectangle-Copy" fill="#0A2440" x="22" y="87" width="6" height="40" rx="3"></rect>
                                    <rect id="Rectangle-Copy-2" fill="#0A2440" x="59" y="87" width="6" height="40" rx="3"></rect>
                                    <rect id="Rectangle-Copy-4" fill="#0A2440" x="40" y="126" width="8" height="40" rx="4"></rect>
                                    <path d="M33,153 L54,153 C61.1797017,153 67,158.820298 67,166 L20,166 L20,166 C20,158.820298 25.8202983,153 33,153 Z" id="Rectangle-Copy-5" fill="#071E37"></path>
                                    <rect id="Rectangle" fill="#451FA3" x="9" y="13" width="70" height="94" rx="8"></rect>
                                    <rect id="Rectangle-Copy-3" fill="#451FA3" x="0" y="115" width="87" height="19" rx="8"></rect>
                                    <g id="Group-6" transform="translate(7.000000, 0.000000)">
                                        <rect id="Rectangle-Copy-3" fill="#F2400A" x="12" y="28" width="52" height="73"></rect>
                                        <rect id="Rectangle" fill="#2877FF" x="7" y="88" width="65" height="19" rx="8"></rect>
                                        <rect id="Rectangle-15" fill="#FFB8A2" x="1" y="48" width="12" height="32" rx="6"></rect>
                                        <path d="M8,28 L14,28 L14,57 L0,57 L0,36 C-5.41083001e-16,31.581722 3.581722,28 8,28 Z" id="Rectangle-Copy-9" fill="#F2400A"></path>
                                        <g id="Group-6-Copy" transform="translate(56.500000, 111.500000) rotate(-270.000000) translate(-56.500000, -111.500000) translate(2.000000, 98.000000)">
                                            <rect id="Rectangle-Copy-3" fill="#2877FF" x="0" y="4" width="87" height="19" rx="8"></rect>
                                            <rect id="Rectangle-Copy-3" fill="#B8C0D0" x="84" y="4" width="7" height="19" rx="3.5"></rect>
                                            <rect id="Combined-Shape" fill="#FFD63F" x="99" y="0" width="10" height="27" rx="5"></rect>
                                            <polygon id="Rectangle-Copy-8" fill="#EEB538" transform="translate(95.000000, 13.500000) rotate(-360.000000) translate(-95.000000, -13.500000) " points="91 8 99 6 99 21 91 19"></polygon>
                                        </g>
                                        <g id="Group-6-Copy" transform="translate(14.500000, 122.000000) rotate(-270.000000) translate(-14.500000, -122.000000) translate(-29.500000, 108.500000)">
                                            <rect id="Rectangle-Copy-3" fill="#2877FF" x="0" y="4" width="66" height="19" rx="8"></rect>
                                            <rect id="Rectangle-Copy-3" fill="#B8C0D0" x="63" y="4" width="7" height="19" rx="3.5"></rect>
                                            <rect id="Combined-Shape" fill="#FFD63F" x="78" y="0" width="10" height="27" rx="5"></rect>
                                            <polygon id="Rectangle-Copy-8" fill="#EEB538" transform="translate(74.000000, 13.500000) rotate(-360.000000) translate(-74.000000, -13.500000) " points="70 8 78 6 78 21 70 19"></polygon>
                                        </g>
                                        <rect id="Rectangle-15" fill="#FFB8A2" transform="translate(19.000000, 75.000000) rotate(-270.000000) translate(-19.000000, -75.000000) " x="14" y="59" width="10" height="32" rx="5"></rect>
                                        <path d="M38,0 L38,0 C45.7319865,-1.42034288e-15 52,6.2680135 52,14 L52,22 C52,29.7319865 45.7319865,36 38,36 L38,36 C30.2680135,36 24,29.7319865 24,22 L24,14 C24,6.2680135 30.2680135,1.42034288e-15 38,0 Z" id="Rectangle-6-Copy-8" fill="#FFB8A2"></path>
                                    </g>
                                    <path d="M42,25 L109,25 C113.418278,25 117,28.581722 117,33 L117,76 L34,76 L34,33 C34,28.581722 37.581722,25 42,25 Z" id="Rectangle-22-Copy" fill="#E2E5EB"></path>
                                </g>
                                <path d="M29,87 L29,87 C30.6568542,87 32,88.3431458 32,90 L32,166 L26,166 L26,90 C26,88.3431458 27.3431458,87 29,87 Z" id="Rectangle-Copy-6" fill="#071E37"></path>
                                <path d="M5.5,80 L162.5,80 C165.537566,80 168,82.4624339 168,85.5 L168,85.5 C168,88.5375661 165.537566,91 162.5,91 L5.5,91 C2.46243388,91 3.71994563e-16,88.5375661 0,85.5 L0,85.5 C-3.71994563e-16,82.4624339 2.46243388,80 5.5,80 Z" id="Rectangle-19" fill="#E2E5EB"></path>
                                <path d="M31.5,44 L31.5,44 C33.4329966,44 35,45.5670034 35,47.5 L35,66.5 C35,68.4329966 33.4329966,70 31.5,70 L31.5,70 C29.5670034,70 28,68.4329966 28,66.5 L28,47.5 C28,45.5670034 29.5670034,44 31.5,44 Z" id="Rectangle-5" fill="#3E2722"></path>
                                <rect id="Rectangle-5" fill="#3E2722" transform="translate(26.678203, 53.031089) rotate(-60.000000) translate(-26.678203, -53.031089) " x="23.1782032" y="45.0310889" width="7" height="16" rx="3.5"></rect>
                                <path d="M16.2993304,51.9956057 C16.199911,51.9985284 16.1001273,52 16,52 C10.4771525,52 6,47.5228475 6,42 C6,36.4771525 10.4771525,32 16,32 C16.3046796,32 16.6061767,32.0136258 16.9039152,32.0403013 C18.9061031,26.7563494 24.0143804,23 30,23 C37.5911601,23 43.7711897,29.0417681 43.9937911,36.5790068 C46.6394641,37.6473539 48.5831175,40.0894601 48.9407344,43.0213086 C51.219169,43.2427855 53,45.1634251 53,47.5 C53,49.9852814 50.9852814,52 48.5,52 L16.5,52 C16.4327555,52 16.3658554,51.998525 16.2993304,51.9956057 Z" id="Combined-Shape" fill="#02AD8A"></path>
                                <polygon id="Rectangle-4" fill="#451FA3" points="21 59 43 59 43 80 21 80"></polygon>
                                <rect id="Rectangle-20" fill="#0A2440" x="70" y="76" width="92" height="4" rx="2"></rect>
                            </g>
                            <rect id="Rectangle-Copy-2" fill="#0A2440" x="84" y="0" width="7" height="94" rx="3.5"></rect>
                            <path d="M87.5,91 L87.5,91 C99.0332596,91 109.160087,98.6683098 112.287194,109.769539 L127,162 L48,162 L62.712806,109.769539 C65.8399127,98.6683098 75.9667404,91 87.5,91 Z" id="Rectangle-3" fill="#0A2440"></path>
                        </g>
                        <path d="M87.5,186 C100.478692,186 111,175.254834 111,162 L64,162 C64,175.254834 74.5213084,186 87.5,186 Z" id="Oval-5" fill="#FFD63F"></path>
                    </g>
                    <g id="Group-2-Copy-3" stroke-width="1" fill="none">
                        <g id="Group-3">
                            <path d="M175,378 C145.672515,243.299379 128.74269,167.572107 124.210526,150.818182 C117.412281,125.687295 107.774664,107 87.5,107 C67.2253362,107 57.5877193,127.372609 50.7894737,152.503497 C46.2573099,169.257421 29.3274854,244.422922 0,378 L175,378 Z" id="Oval-5" fill="#FBEC88"></path>
                            <g id="Group-4-Copy-2" transform="translate(7.000000, 212.000000)">
                                <g id="Group" transform="translate(33.000000, 0.000000)">
                                    <rect id="Rectangle-Copy" fill="#0A2440" x="31" y="87" width="6" height="40" rx="3"></rect>
                                    <rect id="Rectangle-Copy-2" fill="#0A2440" x="68" y="87" width="6" height="40" rx="3"></rect>
                                    <rect id="Rectangle-Copy-4" fill="#0A2440" x="49" y="126" width="8" height="40" rx="4"></rect>
                                    <path d="M42,153 L63,153 C70.1797017,153 76,158.820298 76,166 L29,166 L29,166 C29,158.820298 34.8202983,153 42,153 Z" id="Rectangle-Copy-5" fill="#071E37"></path>
                                    <rect id="Rectangle" fill="#451FA3" x="18" y="13" width="70" height="94" rx="8"></rect>
                                    <rect id="Rectangle-Copy-3" fill="#451FA3" x="9" y="115" width="87" height="19" rx="8"></rect>
                                    <g id="Group-6">
                                        <rect id="Rectangle-Copy-3" fill="#0A2440" x="28" y="28" width="52" height="70"></rect>
                                        <rect id="Rectangle-15" fill="#FFB8A2" x="17" y="48" width="12" height="32" rx="6"></rect>
                                        <rect id="Rectangle-15-Copy" fill="#FFB8A2" x="80" y="48" width="12" height="32" rx="6"></rect>
                                        <rect id="Rectangle-15-Copy" fill="#FFB8A2" transform="translate(98.000000, 75.000000) rotate(-270.000000) translate(-98.000000, -75.000000) " x="93" y="59" width="10" height="32" rx="5"></rect>
                                        <path d="M24,28 L30,28 L30,57 L16,57 L16,36 C16,31.581722 19.581722,28 24,28 Z" id="Rectangle-Copy-9" fill="#0A2440"></path>
                                        <path d="M88,28 L94,28 L94,57 L80,57 L80,36 C80,31.581722 83.581722,28 88,28 Z" id="Rectangle-Copy-10" fill="#0A2440" transform="translate(87.000000, 42.500000) scale(-1, 1) translate(-87.000000, -42.500000) "></path>
                                        <g id="Group-6-Copy" transform="translate(78.500000, 111.500000) rotate(-270.000000) translate(-78.500000, -111.500000) translate(24.000000, 96.000000)">
                                            <rect id="Rectangle-Copy-3" fill="#2877FF" x="0" y="12" width="87" height="19" rx="8"></rect>
                                            <rect id="Rectangle-Copy-3" fill="#B8C0D0" x="84" y="12" width="7" height="19" rx="3.5"></rect>
                                            <rect id="Combined-Shape" fill="#3E2722" x="99" y="0" width="10" height="31" rx="5"></rect>
                                            <polygon id="Rectangle-Copy-8" fill="#3E2722" transform="translate(95.000000, 20.500000) rotate(-360.000000) translate(-95.000000, -20.500000) " points="91 16 99 14 99 27 91 27"></polygon>
                                        </g>
                                        <g id="Group-6-Copy" transform="translate(0.000000, 95.000000)">
                                            <rect id="Rectangle-Copy-3" fill="#2877FF" x="0" y="4" width="87" height="19" rx="8"></rect>
                                            <rect id="Rectangle-Copy-3" fill="#B8C0D0" x="84" y="4" width="7" height="19" rx="3.5"></rect>
                                            <rect id="Combined-Shape" fill="#3E2722" x="99" y="0" width="10" height="27" rx="5"></rect>
                                            <polygon id="Rectangle-Copy-8" fill="#3E2722" transform="translate(95.000000, 13.500000) rotate(-360.000000) translate(-95.000000, -13.500000) " points="91 8 99 6 99 21 91 19"></polygon>
                                        </g>
                                        <rect id="Rectangle-15" fill="#FFB8A2" transform="translate(35.000000, 75.000000) rotate(-270.000000) translate(-35.000000, -75.000000) " x="30" y="59" width="10" height="32" rx="5"></rect>
                                        <path d="M54,0 L54,0 C61.7319865,-1.42034288e-15 68,6.2680135 68,14 L68,22 C68,29.7319865 61.7319865,36 54,36 L54,36 C46.2680135,36 40,29.7319865 40,22 L40,14 C40,6.2680135 46.2680135,1.42034288e-15 54,0 Z" id="Rectangle-6-Copy-8" fill="#FFB8A2"></path>
                                        <rect id="Rectangle-22-Copy-3" fill="#3E2722" x="39" y="20" width="33" height="21" rx="10.5"></rect>
                                    </g>
                                    <path d="M51,31 L108,31 C112.418278,31 116,34.581722 116,39 L116,76 L43,76 L43,39 C43,34.581722 46.581722,31 51,31 Z" id="Rectangle-22-Copy" fill="#E2E5EB"></path>
                                </g>
                                <path d="M143,87 L143,87 C144.656854,87 146,88.3431458 146,90 L146,166 L140,166 L140,90 C140,88.3431458 141.343146,87 143,87 Z" id="Rectangle-Copy-2" fill="#071E37"></path>
                                <path d="M5.5,80 L162.5,80 C165.537566,80 168,82.4624339 168,85.5 L168,85.5 C168,88.5375661 165.537566,91 162.5,91 L5.5,91 C2.46243388,91 3.71994563e-16,88.5375661 0,85.5 L0,85.5 C-3.71994563e-16,82.4624339 2.46243388,80 5.5,80 Z" id="Rectangle-19" fill="#E2E5EB"></path>
                                <rect id="Rectangle-20" fill="#0A2440" x="69" y="76" width="82" height="4" rx="2"></rect>
                            </g>
                            <rect id="Rectangle-Copy-2" fill="#0A2440" x="84" y="0" width="7" height="94" rx="3.5"></rect>
                            <path d="M87.5,91 L87.5,91 C99.0332596,91 109.160087,98.6683098 112.287194,109.769539 L127,162 L48,162 L62.712806,109.769539 C65.8399127,98.6683098 75.9667404,91 87.5,91 Z" id="Rectangle-3" fill="#0A2440"></path>
                        </g>
                        <path d="M87.5,186 C100.478692,186 111,175.254834 111,162 L64,162 C64,175.254834 74.5213084,186 87.5,186 Z" id="Oval-5" fill="#FFD63F"></path>
                    </g>
                    <g id="Group-2-Copy-2" stroke-width="1" fill="none" transform="translate(225.000000, 0.000000)">
                        <g id="Group-3" fill="#0A2440">
                            <rect id="Rectangle-Copy-2" x="36" y="0" width="7" height="94" rx="3.5"></rect>
                            <path d="M39.5,91 L39.5,91 C51.0332596,91 61.1600873,98.6683098 64.287194,109.769539 L79,162 L0,162 L14.712806,109.769539 C17.8399127,98.6683098 27.9667404,91 39.5,91 Z" id="Rectangle-3"></path>
                        </g>
                    </g>
                    <g id="Group-4" stroke-width="1" fill="none" transform="translate(183.000000, 225.000000)">
                        <g id="Group" transform="translate(39.000000, 0.000000)">
                            <rect id="Rectangle-Copy" fill="#0A2440" x="22" y="74" width="6" height="40" rx="3"></rect>
                            <rect id="Rectangle-Copy-2" fill="#0A2440" x="59" y="74" width="6" height="40" rx="3"></rect>
                            <rect id="Rectangle-Copy-4" fill="#0A2440" x="40" y="113" width="8" height="40" rx="4"></rect>
                            <path d="M33,140 L54,140 C61.1797017,140 67,145.820298 67,153 L20,153 L20,153 C20,145.820298 25.8202983,140 33,140 Z" id="Rectangle-Copy-5" fill="#071E37"></path>
                            <rect id="Rectangle" fill="#0E3257" x="9" y="0" width="70" height="94" rx="8"></rect>
                            <rect id="Rectangle-Copy-3" fill="#0E3257" x="0" y="102" width="87" height="19" rx="8"></rect>
                        </g>
                        <path d="M140,74 L140,74 C141.656854,74 143,75.3431458 143,77 L143,153 L137,153 L137,77 C137,75.3431458 138.343146,74 140,74 Z" id="Rectangle-Copy-2" fill="#071E37"></path>
                        <path d="M25,74 L25,74 C26.6568542,74 28,75.3431458 28,77 L28,153 L22,153 L22,77 C22,75.3431458 23.3431458,74 25,74 Z" id="Rectangle-Copy-6" fill="#071E37"></path>
                        <path d="M5.5,67 L162.5,67 C165.537566,67 168,69.4624339 168,72.5 L168,72.5 C168,75.5375661 165.537566,78 162.5,78 L5.5,78 C2.46243388,78 3.71994563e-16,75.5375661 0,72.5 L0,72.5 C-3.71994563e-16,69.4624339 2.46243388,67 5.5,67 Z" id="Rectangle-19" fill="#E2E5EB"></path>
                        <path d="M27.5,31 L27.5,31 C29.4329966,31 31,32.5670034 31,34.5 L31,53.5 C31,55.4329966 29.4329966,57 27.5,57 L27.5,57 C25.5670034,57 24,55.4329966 24,53.5 L24,34.5 C24,32.5670034 25.5670034,31 27.5,31 Z" id="Rectangle-5" fill="#3E2722"></path>
                        <rect id="Rectangle-5" fill="#3E2722" transform="translate(22.678203, 40.031089) rotate(-60.000000) translate(-22.678203, -40.031089) " x="19.1782032" y="32.0310889" width="7" height="16" rx="3.5"></rect>
                        <polygon id="Rectangle-4" fill="#0A2440" points="17 46 39 46 39 67 17 67"></polygon>
                        <rect id="Rectangle-20" fill="#071E37" x="81" y="44" width="62" height="23"></rect>
                    </g>
                    <path d="M282,281 L284,281 C285.104569,281 286,281.895431 286,283 C286,284.104569 285.104569,285 284,285 L277,285 L277,281 L277,277 L282,277 C283.104569,277 284,277.895431 284,279 C284,280.104569 283.104569,281 282,281 Z M311,281 C312.104569,281 313,281.895431 313,283 C313,284.104569 312.104569,285 311,285 L306,285 L306,281 L308,281 C306.895431,281 306,280.104569 306,279 C306,277.895431 306.895431,277 308,277 L313,277 L313,281 L311,281 Z M302,281 C303.104569,281 304,281.895431 304,283 C304,284.104569 303.104569,285 302,285 L297,285 L297,281 L299,281 C297.895431,281 297,280.104569 297,279 C297,277.895431 297.895431,277 299,277 L304,277 L304,281 L302,281 Z M291,285 C288.790861,285 287,283.209139 287,281 C287,278.790861 288.790861,277 291,277 C293.209139,277 295,278.790861 295,281 C295,283.209139 293.209139,285 291,285 Z" id="Combined-Shape" fill="#FFD63F"></path>
                    <rect id="Rectangle-22" fill="#071E37" x="436" y="209" width="23" height="8" rx="4"></rect>
                    <rect id="Rectangle-22-Copy-2" fill="#071E37" x="436" y="205" width="18" height="8" rx="4"></rect>
                </g>
            </g>
            <mask id="mask-4" fill="white">
                <use xlink:href="#path-3"></use>
            </mask>
            <use id="Oval-8-Copy" stroke="#FFFFFF" stroke-width="8" stroke-linecap="round" stroke-linejoin="round" xlink:href="#path-3"></use>
        </g>
    </g>
</svg>