<?xml version="1.0" encoding="UTF-8"?>
<svg width="410px" height="410px" viewBox="0 0 410 410" version="1.1" xmlns="http://www.w3.org/2000/svg" xmlns:xlink="http://www.w3.org/1999/xlink">
    <!-- Generator: Sketch 48.2 (47327) - http://www.bohemiancoding.com/sketch -->
    <title>philosopher/ill_1</title>
    <desc>Created with Sketch.</desc>
    <defs>
        <circle id="path-1" cx="201" cy="201" r="201"></circle>
        <ellipse id="path-3" cx="280.213574" cy="525.313798" rx="279.626003" ry="279.713798"></ellipse>
        <circle id="path-4" cx="201" cy="201" r="201"></circle>
    </defs>
    <g id="philosopher/ill_1" stroke="none" stroke-width="1" fill="none" fill-rule="evenodd" transform="translate(-67.000000, -12.000000)">
        <g transform="translate(71.000000, 16.000000)">
            <mask id="mask-2" fill="white">
                <use xlink:href="#path-1"></use>
            </mask>
            <use id="Oval-8" fill="#071E37" xlink:href="#path-1"></use>
            <g id="Group-3" mask="url(#mask-2)">
                <g transform="translate(-80.000000, 33.000000)">
                    <g id="Group-2" opacity="0.699999988" stroke-width="1" fill="none" fill-rule="evenodd" transform="translate(103.935028, 66.913964)">
                        <g id="Group" transform="translate(-0.000000, -0.000000)">
                            <rect id="Rectangle-14-Copy-2" fill="#FFFFFF" opacity="0.100000001" x="-4.54747351e-13" y="153.638249" width="136.828472" height="32.3318344" rx="16.1659172"></rect>
                            <ellipse id="Oval-8" fill="#2877FF" cx="172.685821" cy="101.306415" rx="101.274617" ry="101.306415"></ellipse>
                            <path d="M172.685821,202.612829 C188.15189,202.612829 202.808233,199.144891 215.920119,192.943975 C200.306171,184.797394 148.989674,182.230764 135.13391,195.420295 C146.746067,200.060649 159.417991,202.612829 172.685821,202.612829 Z" id="Oval-8" fill="#15BC8A"></path>
                            <path d="M221.548274,12.5497177 C207.060049,4.55160853 190.404311,0 172.685821,0 C153.929234,0 136.363576,5.10057513 121.299386,13.9907756 C140.537545,30.4976091 207.098061,34.1210875 221.548274,12.5497177 Z" id="Oval-8" fill="#00B993"></path>
                        </g>
                        <g id="Group" stroke-linecap="round" stroke-linejoin="round" transform="translate(176.995379, 56.939953)" fill="#00B993">
                            <path d="M83.5777546,95.6441396 C91.9076629,80.8039873 96.6648576,63.6396012 96.6648576,45.3502453 C96.6648576,29.1570789 92.9356405,13.8457886 86.2993132,0.248741571 C71.6795346,0.248741571 57.059756,0.248741571 42.4399774,0.248741571 L42.4399774,0.248741571 C34.4185054,0.248741571 27.9158176,6.7514294 27.9158176,14.7729013 L27.9158176,14.7729013 C27.9158176,22.7943733 34.4185054,29.2970611 42.4399774,29.2970611 L56.5566706,29.2970611 C64.1975174,29.2970611 70.4374942,35.4035397 70.6027109,43.0426001 L70.6027109,43.0426001 C70.7633853,50.4716399 64.8712109,56.624319 57.442171,56.7849933 C57.3452096,56.7870904 57.2482284,56.788139 57.1512443,56.788139 L19.6261915,56.788139 C8.89640323,56.788139 0.198191229,65.486351 0.198191229,76.2161393 L0.198191229,76.2161393 C0.198191229,86.9600426 8.89011415,95.6790558 19.6339654,95.7124892 C55.0471691,95.8226631 76.3617654,95.799889 83.5777546,95.6441396 Z" id="Oval-8"></path>
                        </g>
                        <g id="Group" stroke-linecap="round" stroke-linejoin="round" transform="translate(77.875541, 137.769539)" fill="#00B993">
                            <path d="M76.8502884,0.0378557134 C86.6030884,0.0378557134 94.5092949,7.9440622 94.5092949,17.6968622 C94.5092949,17.703494 94.5092912,17.7101258 94.5092837,17.7167577 C94.4982957,27.4572407 86.5931665,35.3445548 76.8526835,35.3335669 L76.8526835,35.3335406 C44.7501391,35.2973265 26.8449904,35.3047692 23.1372375,35.3558686 C13.1413993,25.4218273 5.23806963,13.4135969 0.139339528,0.0378557134 C25.7096558,0.0378557134 51.2799721,0.0378557134 76.8502884,0.0378557134 Z M25.8571602,14.0466877 C23.7113936,14.0466877 21.9719061,15.7861752 21.9719061,17.9319418 C21.9719061,20.0777083 23.7113936,21.8171958 25.8571602,21.8171958 L33.1359029,21.8171958 C35.2816694,21.8171958 37.0211569,20.0777083 37.0211569,17.9319418 C37.0211569,15.7861752 35.2816694,14.0466877 33.1359029,14.0466877 L25.8571602,14.0466877 Z" id="Combined-Shape"></path>
                        </g>
                        <g id="Group" stroke-linecap="round" stroke-linejoin="round" transform="translate(80.030320, 39.875929)" fill="#00B993">
                            <path d="M75.4448892,32.1069061 L86.0858034,32.1069061 C89.0407597,32.1069061 91.4362252,34.5023715 91.4362252,37.4573279 C91.4362252,40.4122842 89.0407597,42.8077496 86.0858034,42.8077496 L51.0972245,42.8077496 C48.1422681,42.8077496 45.7468027,40.4122842 45.7468027,37.4573279 C45.7468027,34.5023715 48.1422681,32.1069061 51.0972245,32.1069061 L55.416481,32.1069061 C56.8368396,31.1449549 57.7703349,29.5183419 57.7703349,27.6736995 C57.7703349,24.7187431 55.3748695,22.3232777 52.4199132,22.3232777 L40.6374149,22.3232777 C17.8742439,21.9127096 4.37853694,21.7074255 0.150294153,21.7074255 C3.44662093,13.618417 7.04374216,6.90645022 12.1752434,0.0195800846 C18.7078545,0.0195800846 42.9059216,0.0140405107 84.7694447,0.0029380295 C84.7704253,0.00293777 84.7714058,0.00293764024 84.7723864,0.00293764024 C90.9111877,0.00293764024 95.8876695,4.97941939 95.8876695,11.1182207 C95.8876695,17.259069 90.9102971,22.2376164 84.769449,22.2390659 L77.9383279,22.2406784 C77.8867963,22.3065761 77.8354157,22.3721275 77.7841861,22.4373325 C75.2818782,22.9546948 73.4009268,25.1709719 73.4009268,27.8265687 C73.4009268,29.5553762 74.1980889,31.0979966 75.4448892,32.1069061 Z" id="Combined-Shape"></path>
                        </g>
                        <rect id="Rectangle-25" fill="#00B993" x="87.5720472" y="105.078462" width="60.3338145" height="23.7100119" rx="11.855006"></rect>
                        <rect id="Rectangle-25-Copy" fill="#15BC8A" x="172.685821" y="108.311645" width="26.9347386" height="10.7772781" rx="5.38863907"></rect>
                        <rect id="Rectangle-25-Copy-2" fill="#15BC8A" x="208.239676" y="175.13077" width="15.0834536" height="7.5440947" rx="3.77204735"></rect>
                    </g>
                    <g id="Group" stroke-width="1" fill="none" fill-rule="evenodd" transform="translate(163.736347, 111.200000)">
                        <rect id="Rectangle-12" fill="#FFFFFF" x="93.5706215" y="100.8" width="15.5951036" height="51.6" rx="7.79755179"></rect>
                        <rect id="Rectangle-12-Copy-6" fill="#071E37" x="61.180791" y="32.4" width="4.79849341" height="121.2" rx="2.3992467"></rect>
                        <path d="M133.903904,35.4809411 L133.903904,21.5344022 C133.903904,20.2451475 134.949051,19.2 136.238306,19.2 C137.527561,19.2 138.572708,20.2451475 138.572708,21.5344022 L138.572708,36.6198951 C143.160511,38.687858 146.354049,43.3009839 146.354049,48.6600005 L146.354049,98.3999995 C146.354049,105.690158 140.444207,111.6 133.154048,111.6 L101.972129,111.6 C94.6819696,111.6 88.7721281,105.690158 88.7721281,98.3999995 L88.7721281,48.6600005 C88.7721281,41.3698415 94.6819696,35.46 101.972129,35.46 L133.154048,35.46 C133.405707,35.46 133.655721,35.4670425 133.903904,35.4809411 Z" id="Combined-Shape" fill="#B8C0D0"></path>
                        <path d="M3.18747338,4.83681587 C7.72322456,6.41227196 12.2589757,7.2 16.7947269,7.2 C25.1920904,7.2 25.1920904,6 33.5894539,3.6 C41.9868173,1.2 41.9868173,6.99721059e-16 50.3841808,0 C55.4728974,0 60.5616141,0.991503836 65.6503307,2.97451151 L65.6503301,2.97451299 C66.572006,3.33367825 67.1789077,4.22153472 67.1789077,5.21071924 L67.178901,47.1446599 C67.178901,48.4701396 66.1043874,49.5446532 64.7789076,49.5446532 C64.5476828,49.5446532 64.3176715,49.5112385 64.0960048,49.4454449 C58.1541151,47.681815 53.5835071,46.8 50.3841808,46.8 C44.7859385,46.8 41.9571178,48.3348116 33.5894539,50.4 C25.2217899,52.4651884 25.1920904,54 16.7947269,54 C11.7060103,54 6.61729365,53.0084962 1.528577,51.0254885 L1.52857758,51.025487 C0.60690175,50.6663217 -2.95386305e-15,49.7784653 0,48.7892808 L-9.82996918e-06,7.10395801 C-9.82996918e-06,5.77846913 1.07451121,4.70394808 2.4000001,4.70394808 C2.66806946,4.70394808 2.93424469,4.74885896 3.18747338,4.83681587 Z" id="Rectangle" fill="#FFFFFF"></path>
                        <rect id="Rectangle-12-Copy-3" fill="#FFFFFF" transform="translate(78.575330, 63.000000) rotate(-270.000000) translate(-78.575330, -63.000000) " x="70.7777778" y="39.6" width="15.5951036" height="46.8" rx="7.79755179"></rect>
                        <rect id="Rectangle-12-Copy-4" fill="#FFFFFF" transform="translate(143.354991, 78.600000) rotate(-210.000000) translate(-143.354991, -78.600000) " x="135.557439" y="52.8" width="15.5951036" height="51.6" rx="7.79755179"></rect>
                        <rect id="Rectangle-12-Copy" fill="#FFFFFF" x="124.760829" y="100.8" width="15.5951036" height="51.6" rx="7.79755179"></rect>
                        <rect id="Rectangle-12-Copy-2" fill="#FFFFFF" x="93.5706215" y="39.6" width="46.7853107" height="79.2" rx="10.8000004"></rect>
                        <ellipse id="Oval" fill="#FFFFFF" cx="117.563089" cy="43.2" rx="15.5951036" ry="15.6"></ellipse>
                        <ellipse id="Oval" fill="#0A2440" cx="117.563089" cy="43.2" rx="11.9962335" ry="12"></ellipse>
                        <ellipse id="Oval" fill="#F6AD65" cx="117.563089" cy="43.2" rx="9.59698682" ry="9.6"></ellipse>
                        <rect id="Rectangle-2" fill="#FFFFFF" opacity="0.400000006" x="111.564972" y="37.2" width="3.59887006" height="8.4" rx="1.79943503"></rect>
                        <ellipse id="Oval-Copy" fill="#0A2440" cx="127.759887" cy="66.6" rx="2.99905838" ry="3"></ellipse>
                        <ellipse id="Oval-Copy-2" fill="#0A2440" cx="127.759887" cy="81" rx="2.99905838" ry="3"></ellipse>
                    </g>
                    <g id="Combined-Shape" fill="none">
                        <use fill="#071E37" fill-rule="evenodd" xlink:href="#path-3"></use>
                        <ellipse stroke="#E2E5EB" stroke-width="16.2000008" cx="280.213574" cy="525.313798" rx="271.526003" ry="271.613797"></ellipse>
                    </g>
                    <path d="M182.93032,141.019245 L187.16235,139.885276 C187.352072,139.83444 187.542839,139.815904 187.728814,139.826296 L187.728814,129.799435 C187.728814,128.805635 188.534448,128 189.528249,128 C190.522049,128 191.327684,128.805635 191.327684,129.799435 L191.327684,151.400565 C191.327684,152.394365 190.522049,153.2 189.528249,153.2 C188.534448,153.2 187.728814,152.394365 187.728814,151.400565 L187.728814,143.459317 L182.93032,144.745069 L182.93032,155.000565 C182.93032,155.994365 182.124686,156.8 181.130885,156.8 C180.137085,156.8 179.33145,155.994365 179.33145,155.000565 L179.33145,133.399435 C179.33145,132.405635 180.137085,131.6 181.130885,131.6 C182.124686,131.6 182.93032,132.405635 182.93032,133.399435 L182.93032,141.019245 Z M199.125235,130.4 C200.119036,130.4 200.92467,131.205635 200.92467,132.199435 L200.92467,147.800565 C200.92467,148.794365 200.119036,149.6 199.125235,149.6 C198.131435,149.6 197.3258,148.794365 197.3258,147.800565 L197.3258,132.199435 C197.3258,131.205635 198.131435,130.4 199.125235,130.4 Z M209.921846,120.8 C210.915646,120.8 211.721281,121.605635 211.721281,122.599435 L211.721281,138.200565 C211.721281,139.194365 210.915646,140 209.921846,140 C208.928045,140 208.122411,139.194365 208.122411,138.200565 L208.122411,122.599435 C208.122411,121.605635 208.928045,120.8 209.921846,120.8 Z M199.125235,124.4 C200.119036,124.4 200.92467,125.205635 200.92467,126.199435 L200.92467,126.200565 C200.92467,127.194365 200.119036,128 199.125235,128 C198.131435,128 197.3258,127.194365 197.3258,126.200565 L197.3258,126.199435 C197.3258,125.205635 198.131435,124.4 199.125235,124.4 Z M209.921846,142.4 C210.915646,142.4 211.721281,143.205635 211.721281,144.199435 L211.721281,144.200565 C211.721281,145.194365 210.915646,146 209.921846,146 C208.928045,146 208.122411,145.194365 208.122411,144.200565 L208.122411,144.199435 C208.122411,143.205635 208.928045,142.4 209.921846,142.4 Z" id="Combined-Shape" fill="#0A2440" fill-rule="evenodd"></path>
                    <ellipse id="Oval-4" fill="#FFFFFF" fill-rule="evenodd" cx="412.998117" cy="240" rx="5.99811676" ry="6"></ellipse>
                    <ellipse id="Oval-4-Copy" fill="#FFFFFF" fill-rule="evenodd" opacity="0.699999988" cx="119.956685" cy="111.2" rx="5.99811676" ry="6"></ellipse>
                    <ellipse id="Oval-4-Copy-6" fill="#FFFFFF" fill-rule="evenodd" opacity="0.699999988" cx="134.397363" cy="204.4" rx="8.39736347" ry="8.4"></ellipse>
                    <ellipse id="Oval-4-Copy-2" fill="#FFFFFF" fill-rule="evenodd" opacity="0.200000003" cx="191.59887" cy="49.6" rx="3.59887006" ry="3.6"></ellipse>
                    <ellipse id="Oval-4-Copy-4" fill="#FFFFFF" fill-rule="evenodd" opacity="0.200000003" cx="104.954802" cy="62" rx="3.59887006" ry="3.6"></ellipse>
                    <ellipse id="Oval-4-Copy-8" fill="#FFFFFF" fill-rule="evenodd" opacity="0.400000006" cx="227.316384" cy="4.4" rx="3.59887006" ry="3.6"></ellipse>
                    <ellipse id="Oval-4-Copy-3" fill="#FFFFFF" fill-rule="evenodd" opacity="0.699999988" cx="401.26177" cy="52.4" rx="5.99811676" ry="6"></ellipse>
                    <ellipse id="Oval-4-Copy-7" fill="#FFFFFF" fill-rule="evenodd" opacity="0.5" cx="335.676083" cy="14.4" rx="14.3954802" ry="14.4"></ellipse>
                    <rect id="Rectangle-14" fill="#FFFFFF" fill-rule="evenodd" opacity="0.200000003" x="407.259887" y="177.2" width="69.5781544" height="10.8" rx="5.4"></rect>
                    <rect id="Rectangle-14-Copy-3" fill="#FFFFFF" fill-rule="evenodd" opacity="0.200000003" x="46.173258" y="58.4" width="46.7853107" height="7.2" rx="3.6"></rect>
                    <rect id="Rectangle-14-Copy" fill="#FFFFFF" fill-rule="evenodd" opacity="0.100000001" x="395" y="75" width="152.352166" height="36" rx="18"></rect>
                </g>
            </g>
            <mask id="mask-5" fill="white">
                <use xlink:href="#path-4"></use>
            </mask>
            <use id="Oval-8-Copy" stroke="#FFFFFF" stroke-width="8" stroke-linecap="round" stroke-linejoin="round" xlink:href="#path-4"></use>
        </g>
    </g>
</svg>